<?xml version="1.0" standalone="no"?>
<!DOCTYPE svg PUBLIC "-//W3C//DTD SVG 20010904//EN"
 "http://www.w3.org/TR/2001/REC-SVG-20010904/DTD/svg10.dtd">
<svg version="1.0" xmlns="http://www.w3.org/2000/svg"
 width="1897.000000pt" height="913.000000pt" viewBox="0 0 1897.000000 913.000000"
 preserveAspectRatio="xMidYMid meet">

<g transform="translate(0.000000,913.000000) scale(0.100000,-0.100000)"
fill="#000000" stroke="none">
<path d="M0 8880 l0 -250 9485 0 9485 0 0 250 0 250 -9485 0 -9485 0 0 -250z
m7764 64 c9 -8 16 -23 16 -32 1 -16 1 -16 10 -1 7 12 24 17 60 17 27 0 50 -4
50 -9 0 -5 -8 -6 -17 -3 -15 5 -15 3 2 -11 19 -15 20 -14 29 5 8 17 18 20 71
20 l63 0 4 -35 c4 -36 4 -36 -31 -33 -31 3 -36 7 -39 29 -2 21 -7 26 -23 22
-21 -6 -22 -40 -1 -35 7 1 12 -2 12 -7 0 -5 -38 -9 -85 -9 -67 0 -87 4 -94 16
-8 14 -10 14 -26 -1 -10 -11 -32 -17 -58 -16 -23 0 -36 3 -29 6 6 2 12 22 12
43 0 21 -6 41 -12 43 -7 3 6 6 29 6 25 1 48 -5 57 -15z m490 -16 c8 -5 7 -8
-1 -8 -7 0 -13 -9 -13 -20 0 -29 17 -25 24 6 5 20 12 25 34 22 23 -2 27 -8 27
-33 0 -30 -1 -30 -55 -30 -52 0 -55 1 -58 27 -4 32 19 82 26 58 3 -8 10 -18
16 -22z m256 0 c1 -27 2 -30 11 -15 8 14 49 25 49 13 0 -2 3 -11 6 -20 4 -12
0 -16 -16 -16 -11 0 -19 -4 -15 -10 3 -5 13 -6 22 -3 11 4 14 3 9 -5 -11 -18
-44 -14 -55 6 -10 16 -10 16 -11 0 0 -24 -65 -25 -74 -2 -10 26 3 54 26 54 14
0 18 5 14 15 -4 10 1 15 14 15 16 0 20 -7 20 -32z m198 5 c3 -17 -3 -24 -23
-29 -20 -5 -25 -11 -22 -25 4 -14 0 -19 -16 -19 -20 0 -22 5 -22 50 l0 51 40
-3 c33 -2 41 -7 43 -25z m91 13 c10 -11 9 -16 -3 -23 -14 -8 -14 -11 0 -31 24
-35 36 -27 32 23 l-3 45 48 0 c45 0 49 -2 59 -32 l12 -33 13 33 c10 25 19 32
41 31 15 0 21 -3 15 -6 -8 -2 -13 -22 -13 -44 0 -54 24 -51 46 6 9 25 20 45
24 45 4 0 19 -22 32 -50 l25 -50 -28 0 c-21 0 -27 4 -23 15 4 10 0 15 -15 15
-23 0 -29 -15 -8 -23 6 -3 -11 -6 -39 -6 -50 -1 -51 0 -48 27 l4 27 -12 -27
c-15 -36 -26 -35 -44 5 l-15 32 4 -32 4 -33 -63 0 c-52 0 -64 3 -78 23 l-17
22 5 -22 c3 -18 0 -23 -17 -23 -20 0 -22 5 -22 50 l0 50 36 0 c20 0 42 -6 48
-14z m355 0 c-3 -8 -1 -23 5 -33 9 -17 10 -16 19 7 5 14 8 28 5 33 -2 4 23 7
56 7 34 0 61 -4 61 -9 0 -5 -9 -7 -20 -4 -14 4 -20 0 -20 -11 0 -10 5 -14 10
-11 6 3 10 -1 10 -10 0 -9 -4 -13 -10 -10 -5 3 -10 -3 -10 -14 0 -23 19 -28
38 -9 9 9 12 9 12 0 0 -7 5 -12 10 -12 15 0 12 77 -2 83 -7 3 9 6 35 6 35 1
49 -3 54 -15 3 -9 0 -19 -6 -24 -10 -6 -10 -12 0 -29 20 -30 27 -27 49 24 11
25 23 45 28 45 4 0 18 -22 29 -50 l21 -50 -24 0 c-13 0 -23 5 -21 12 1 6 -7
14 -17 16 -14 3 -17 0 -13 -12 11 -27 -58 -21 -79 7 l-16 22 5 -22 c5 -22 3
-23 -76 -22 -45 0 -76 3 -69 6 7 2 12 22 12 45 0 54 -28 49 -48 -9 -7 -24 -17
-43 -22 -43 -4 0 -19 23 -32 50 l-25 50 28 0 c21 0 27 -4 23 -14z m415 -3 c0
-10 -4 -27 -8 -37 -7 -18 -8 -18 -14 5 -10 37 -8 49 8 49 8 0 15 -8 14 -17z
m164 10 c-14 -5 -18 -83 -5 -83 4 0 13 9 19 19 10 15 10 21 0 24 -8 3 -6 7 6
12 26 11 47 -1 47 -28 0 -16 6 -23 20 -23 24 0 25 5 3 21 -21 16 -8 35 24 35
14 0 32 8 39 18 13 16 13 16 14 0 0 -19 7 -21 51 -18 23 1 27 -3 31 -33 l4
-34 -181 -2 -180 -1 0 50 0 50 60 -1 c33 0 54 -3 48 -6z m367 -3 c0 -5 -12
-10 -27 -10 l-28 0 29 -15 c36 -19 34 -19 38 8 5 33 45 35 60 3 23 -52 -34
-106 -61 -58 -9 16 -10 16 -16 0 -8 -20 -50 -24 -61 -7 -5 9 1 10 20 5 34 -8
36 19 2 31 -19 7 -22 12 -15 31 6 15 17 22 34 22 14 0 25 -4 25 -10z m135 -20
c0 -29 -32 -41 -41 -16 -9 24 4 48 23 44 12 -2 18 -12 18 -28z m29 -20 c-20
-27 -40 -50 -45 -50 -5 0 7 23 27 50 20 28 40 50 45 50 5 0 -7 -22 -27 -50z
m176 20 c0 -32 14 -40 24 -15 5 13 46 23 46 11 0 -2 3 -11 6 -20 4 -12 0 -16
-16 -16 -11 0 -19 -4 -15 -10 3 -5 13 -6 22 -3 11 4 14 3 9 -5 -10 -17 -46
-15 -52 3 -4 8 -11 15 -16 15 -6 0 -7 -7 -4 -16 5 -12 -1 -15 -32 -12 -34 3
-37 6 -37 33 0 24 5 31 23 33 16 2 22 8 18 18 -3 8 1 14 9 14 10 0 15 -10 15
-30z m192 -20 l3 -51 -35 3 c-30 3 -35 7 -38 31 -3 22 1 30 18 34 13 3 19 11
16 19 -3 9 2 14 13 14 16 0 20 -9 23 -50z m470 5 c-2 -38 15 -49 20 -12 4 27
45 31 61 5 18 -28 -8 -47 -61 -45 -43 2 -47 4 -53 32 -3 19 0 36 9 48 20 22
26 15 24 -28z m348 20 c0 -23 2 -24 20 -13 16 10 24 10 40 1 12 -8 21 -9 25
-3 8 13 45 13 45 0 0 -5 -8 -7 -17 -4 -17 5 -17 5 0 -9 26 -21 22 -47 -8 -47
-14 0 -25 5 -25 11 0 6 7 9 15 5 8 -3 15 -1 15 3 0 18 -27 18 -38 0 -14 -22
-42 -25 -61 -6 -11 10 -13 10 -7 0 5 -9 0 -13 -13 -13 -18 0 -21 6 -21 50 0
38 4 50 15 50 9 0 15 -9 15 -25z m780 0 c0 -29 3 -30 30 -13 15 10 22 10 31 1
8 -8 16 -9 29 -1 10 7 25 8 36 3 18 -8 17 -9 -3 -12 -25 -5 -27 -11 -14 -32 5
-8 14 -10 21 -6 8 5 11 4 7 -2 -8 -13 -117 -15 -117 -2 0 5 -5 9 -11 9 -5 0
-7 -4 -4 -10 3 -5 -2 -10 -12 -10 -15 0 -18 8 -18 50 0 33 4 50 13 50 6 0 12
-11 12 -25z m240 15 c0 -5 -4 -10 -10 -10 -5 0 -10 5 -10 10 0 6 5 10 10 10 6
0 10 -4 10 -10z m322 -40 l3 -51 -35 3 c-30 3 -35 7 -38 31 -3 22 1 30 18 34
13 3 19 11 16 19 -3 9 2 14 13 14 16 0 20 -9 23 -50z m-5132 10 c0 -5 -4 -10
-10 -10 -5 0 -10 5 -10 10 0 6 5 10 10 10 6 0 10 -4 10 -10z m459 -7 c10 -17
10 -17 11 0 0 14 7 18 32 15 27 -3 33 -8 39 -35 6 -33 6 -33 -32 -33 -28 0
-39 4 -39 15 0 8 -9 15 -20 15 -11 0 -20 -5 -20 -11 0 -6 7 -9 15 -5 8 3 15 1
15 -4 0 -13 -47 -13 -55 1 -4 5 -4 21 -1 35 8 28 40 33 55 7z m261 6 c0 -5 -6
-7 -12 -3 -7 4 -5 -2 5 -14 11 -11 16 -26 12 -31 -8 -14 -45 -14 -45 -1 0 5 8
7 18 3 16 -6 16 -5 0 14 -24 26 -23 43 2 43 11 0 20 -5 20 -11z m2380 -1 c0
-5 -8 -7 -17 -4 -15 6 -15 5 1 -13 25 -28 13 -39 -44 -39 -40 -1 -50 3 -55 19
-4 11 -2 26 4 33 13 15 111 19 111 4z m142 -23 c4 -34 3 -35 -29 -35 -30 0
-33 3 -33 29 0 25 -3 28 -25 23 -27 -5 -29 -10 -16 -31 5 -8 14 -10 22 -6 11
6 11 5 3 -4 -16 -17 -48 -10 -52 12 -8 38 5 47 67 47 l59 0 4 -35z m78 18 c11
-17 11 -17 6 0 -4 14 1 17 28 17 31 0 34 -3 38 -35 l4 -35 -65 2 c-54 3 -66 6
-69 21 -9 44 35 66 58 30z m310 0 c11 -17 11 -17 6 0 -5 16 -1 18 32 15 34 -3
37 -6 40 -35 l3 -33 -65 0 c-70 0 -81 7 -72 46 8 29 40 32 56 7z m480 -13 c0
-16 5 -30 11 -30 7 0 10 12 7 30 l-5 30 54 0 c31 0 53 -4 53 -11 0 -5 -6 -7
-12 -3 -7 4 -5 -2 5 -14 11 -11 16 -26 12 -31 -8 -14 -45 -14 -45 -1 0 5 8 7
18 3 15 -6 15 -4 -2 15 -26 30 -46 28 -46 -3 0 -25 -2 -26 -57 -23 -54 3 -58
5 -61 29 -2 21 -7 26 -23 22 -21 -6 -22 -40 -1 -35 7 1 12 -2 12 -8 0 -13 -47
-13 -55 1 -4 5 -4 21 -1 35 6 22 11 24 71 24 l65 0 0 -30z m197 19 c8 -8 13
-8 17 0 9 14 46 14 46 0 0 -6 -8 -8 -17 -5 -17 6 -17 5 0 -8 26 -20 22 -46 -8
-46 -14 0 -25 5 -25 11 0 6 7 9 15 5 8 -3 15 -1 15 3 0 19 -30 19 -40 1 -13
-25 -46 -26 -59 -3 -20 36 27 71 56 42z m153 0 c0 -5 -6 -7 -12 -3 -9 5 -8 2
1 -9 13 -16 15 -16 28 3 18 26 39 26 53 0 9 -17 8 -20 -10 -20 -12 0 -18 -5
-15 -10 4 -6 11 -8 16 -5 5 4 9 1 9 -4 0 -6 -11 -11 -25 -11 -14 0 -25 5 -25
12 0 9 -3 9 -12 0 -14 -14 -48 -16 -48 -2 0 5 8 7 18 3 16 -6 16 -5 0 14 -24
26 -23 43 2 43 11 0 20 -5 20 -11z m360 0 c0 -5 8 -4 19 2 26 17 51 4 51 -26
0 -30 -25 -43 -51 -26 -11 6 -19 7 -19 2 0 -17 -89 -11 -99 7 -17 30 5 50 54
50 25 0 45 -4 45 -9z m151 -26 c6 -33 6 -33 -32 -33 -38 0 -39 1 -39 36 0 34
1 35 32 32 27 -3 33 -8 39 -35z m77 0 c3 -31 1 -33 -27 -33 -40 0 -49 19 -20
41 l24 18 -24 -6 c-17 -4 -22 -3 -17 6 5 7 20 11 34 9 22 -2 28 -9 30 -35z
m157 2 c0 -24 -5 -31 -24 -33 -31 -5 -45 11 -37 43 5 21 12 26 34 23 23 -2 27
-8 27 -33z m55 24 c0 -5 -6 -7 -12 -3 -7 4 -4 -2 6 -14 11 -12 25 -22 33 -22
7 0 13 -4 13 -9 0 -5 -18 -9 -40 -9 -22 0 -40 3 -40 8 0 5 8 7 18 3 16 -6 16
-5 0 14 -24 26 -23 43 2 43 11 0 20 -5 20 -11z m-2605 -29 c0 -16 -6 -26 -18
-28 -19 -4 -32 20 -23 44 9 25 41 13 41 -16z m-2655 -31 c0 -18 -5 -29 -11
-27 -6 2 -10 7 -10 11 1 4 1 19 1 33 0 14 4 23 10 19 6 -3 10 -20 10 -36z
m1910 11 c0 -5 -7 -10 -15 -10 -8 0 -15 5 -15 10 0 6 7 10 15 10 8 0 15 -4 15
-10z"/>
<path d="M7720 8910 c0 -42 14 -54 25 -20 5 17 -9 60 -20 60 -3 0 -5 -18 -5
-40z"/>
<path d="M8012 8895 c0 -16 2 -22 5 -12 2 9 2 23 0 30 -3 6 -5 -1 -5 -18z"/>
<path d="M7830 8889 c-29 -8 -27 -10 18 -12 17 -1 32 1 32 4 0 12 -24 16 -50
8z"/>
<path d="M8292 8895 c0 -16 2 -22 5 -12 2 9 2 23 0 30 -3 6 -5 -1 -5 -18z"/>
<path d="M8460 8896 c0 -14 5 -26 10 -26 6 0 10 9 10 19 0 11 -4 23 -10 26 -6
4 -10 -5 -10 -19z"/>
<path d="M8660 8930 c0 -19 3 -21 12 -12 9 9 9 15 0 24 -9 9 -12 7 -12 -12z"/>
<path d="M8750 8935 c0 -8 5 -15 10 -15 6 0 10 7 10 15 0 8 -4 15 -10 15 -5 0
-10 -7 -10 -15z"/>
<path d="M8860 8910 c0 -29 4 -40 15 -40 11 0 15 11 15 40 0 29 -4 40 -15 40
-11 0 -15 -11 -15 -40z"/>
<path d="M9055 8910 c-3 -5 -1 -10 4 -10 6 0 11 5 11 10 0 6 -2 10 -4 10 -3 0
-8 -4 -11 -10z"/>
<path d="M9360 8935 c0 -8 5 -15 10 -15 6 0 10 7 10 15 0 8 -4 15 -10 15 -5 0
-10 -7 -10 -15z"/>
<path d="M9460 8910 c0 -5 5 -10 11 -10 5 0 7 5 4 10 -3 6 -8 10 -11 10 -2 0
-4 -4 -4 -10z"/>
<path d="M9660 8935 c0 -8 7 -15 15 -15 8 0 15 7 15 15 0 8 -7 15 -15 15 -8 0
-15 -7 -15 -15z"/>
<path d="M9830 8915 c0 -2 9 -9 20 -15 15 -8 20 -8 20 3 0 7 -9 13 -20 14 -11
1 -20 0 -20 -2z"/>
<path d="M9900 8899 c0 -23 9 -24 37 -1 l23 17 -30 1 c-23 1 -30 -3 -30 -17z"/>
<path d="M9660 8890 c0 -11 7 -20 15 -20 8 0 15 9 15 20 0 11 -7 20 -15 20 -8
0 -15 -9 -15 -20z"/>
<path d="M10137 8943 c-11 -10 -8 -61 3 -68 6 -4 10 10 10 34 0 42 -2 46 -13
34z"/>
<path d="M10400 8895 c0 -15 4 -24 10 -20 6 3 10 12 10 20 0 8 -4 17 -10 20
-6 4 -10 -5 -10 -20z"/>
<path d="M10585 8910 c-3 -5 -1 -18 4 -27 9 -16 10 -14 11 10 0 28 -5 34 -15
17z"/>
<path d="M11143 8904 c-3 -8 -1 -20 6 -27 8 -8 11 -4 11 16 0 30 -7 35 -17 11z"/>
<path d="M11483 8904 c-3 -8 -1 -20 6 -27 8 -8 11 -4 11 16 0 30 -7 35 -17 11z"/>
<path d="M12275 8880 c3 -5 12 -7 20 -3 21 7 19 13 -6 13 -11 0 -18 -4 -14
-10z"/>
<path d="M12745 8910 c-3 -5 -1 -18 4 -27 9 -16 10 -14 11 10 0 28 -5 34 -15
17z"/>
<path d="M8162 8890 c0 -14 2 -19 5 -12 2 6 2 18 0 25 -3 6 -5 1 -5 -13z"/>
<path d="M10690 8890 c-28 -9 -27 -10 18 -14 27 -3 31 -1 21 10 -6 8 -12 14
-13 13 0 -1 -12 -5 -26 -9z"/>
<path d="M10860 8900 c0 -11 5 -20 10 -20 6 0 10 9 10 20 0 11 -4 20 -10 20
-5 0 -10 -9 -10 -20z"/>
<path d="M11022 8890 c0 -14 2 -19 5 -12 2 6 2 18 0 25 -3 6 -5 1 -5 -13z"/>
<path d="M10950 8881 c0 -6 9 -9 20 -8 11 1 20 5 20 9 0 4 -9 8 -20 8 -11 0
-20 -4 -20 -9z"/>
<path d="M11332 8890 c0 -14 2 -19 5 -12 2 6 2 18 0 25 -3 6 -5 1 -5 -13z"/>
<path d="M11260 8881 c0 -6 9 -9 20 -8 11 1 20 5 20 9 0 4 -9 8 -20 8 -11 0
-20 -4 -20 -9z"/>
<path d="M11732 8895 c0 -16 2 -22 5 -12 2 9 2 23 0 30 -3 6 -5 -1 -5 -18z"/>
<path d="M11937 8913 c-11 -10 -8 -43 3 -43 6 0 10 11 10 25 0 26 -2 29 -13
18z"/>
<path d="M12423 8913 c-24 -5 -28 -11 -15 -28 15 -21 42 -14 42 11 0 13 -1 23
-2 23 -2 -1 -13 -4 -25 -6z"/>
<path d="M12512 8895 c0 -16 2 -22 5 -12 2 9 2 23 0 30 -3 6 -5 -1 -5 -18z"/>
<path d="M12592 8890 c0 -14 2 -19 5 -12 2 6 2 18 0 25 -3 6 -5 1 -5 -13z"/>
<path d="M12832 8895 c0 -16 2 -22 5 -12 2 9 2 23 0 30 -3 6 -5 -1 -5 -18z"/>
<path d="M582 8329 l2 -84 3 78 c4 77 4 77 31 76 l27 -1 -25 -8 -25 -8 25 -2
c18 -2 20 -4 8 -7 -15 -4 -18 -15 -16 -66 l2 -62 3 58 c3 46 7 58 19 53 13 -5
19 6 15 27 -1 5 2 6 6 4 13 -8 3 -197 -10 -194 -6 1 -13 -8 -15 -20 -2 -15 2
-23 12 -23 24 0 29 17 29 124 l0 101 7 -95 6 -95 2 91 c2 106 -6 123 -66 131
l-42 6 2 -84z m83 -159 c-3 -5 -12 -10 -18 -10 -7 0 -6 4 3 10 19 12 23 12 15
0z"/>
<path d="M18490 8240 c0 -5 4 -10 10 -10 16 0 39 -55 37 -86 -2 -29 -2 -29 61
-32 38 -2 62 1 62 8 0 6 -23 10 -55 10 -30 0 -55 5 -55 10 0 6 20 10 45 10 39
0 46 4 60 30 24 47 20 50 -54 50 -39 0 -73 5 -76 10 -3 6 -13 10 -21 10 -8 0
-14 -4 -14 -10z m150 -50 c-8 -14 -21 -20 -45 -20 -24 0 -37 6 -45 20 -10 19
-8 20 45 20 53 0 55 -1 45 -20z"/>
<path d="M527 8222 c-13 -15 -17 -39 -17 -114 0 -104 11 -126 60 -124 38 2 50
14 50 52 0 27 -4 34 -20 34 -15 0 -20 -7 -20 -25 0 -14 -4 -25 -10 -25 -6 0
-11 39 -12 93 l-2 92 -6 -95 -7 -95 1 95 c1 83 3 95 18 92 9 -1 19 2 23 8 4 6
-6 8 -24 6 -17 -2 -28 1 -25 5 8 13 48 11 61 -2 7 -7 9 -25 6 -40 -3 -18 -1
-29 6 -29 15 0 14 63 -1 78 -18 18 -63 14 -81 -6z m82 -207 c0 -5 -4 -3 -9 5
-5 8 -9 22 -9 30 0 16 17 -16 18 -35z m-24 -15 c3 -6 -1 -7 -9 -4 -18 7 -21
14 -7 14 6 0 13 -4 16 -10z"/>
<path d="M587 8203 c-4 -3 -7 -18 -6 -32 1 -26 1 -25 10 3 9 31 7 41 -4 29z"/>
<path d="M13895 8160 c0 -27 5 -50 10 -50 6 0 10 23 10 50 0 28 -4 50 -10 50
-5 0 -10 -22 -10 -50z"/>
<path d="M14819 8193 c-12 -16 -12 -17 1 -7 8 6 22 14 30 17 13 5 12 6 -1 6
-9 1 -23 -7 -30 -16z"/>
<path d="M15799 8193 c-12 -16 -12 -17 1 -7 8 6 22 14 30 17 13 5 12 6 -1 6
-9 1 -23 -7 -30 -16z"/>
<path d="M17088 8203 c6 -2 18 -2 25 0 6 3 1 5 -13 5 -14 0 -19 -2 -12 -5z"/>
<path d="M16209 8185 c-7 -6 2 -75 10 -75 3 0 6 16 5 35 -1 35 -6 49 -15 40z"/>
<path d="M14018 8145 c-2 -21 0 -35 7 -35 7 0 9 14 7 35 -2 19 -5 35 -7 35 -2
0 -5 -16 -7 -35z"/>
<path d="M14070 8176 c0 -2 7 -7 16 -10 8 -3 12 -2 9 4 -6 10 -25 14 -25 6z"/>
<path d="M14129 8178 c-6 -20 -1 -68 6 -68 7 0 9 15 7 35 -3 29 -9 44 -13 33z"/>
<path d="M14190 8173 c8 -3 19 -11 23 -17 6 -7 7 -6 4 4 -2 8 -12 16 -23 17
-13 2 -15 1 -4 -4z"/>
<path d="M14979 8178 c-6 -20 -1 -68 6 -68 7 0 9 15 7 35 -3 29 -9 44 -13 33z"/>
<path d="M15110 8173 c8 -3 19 -11 23 -17 6 -7 7 -6 4 4 -2 8 -12 16 -23 17
-13 2 -15 1 -4 -4z"/>
<path d="M15959 8179 c-5 -29 -2 -69 6 -69 11 0 12 56 2 67 -4 3 -7 4 -8 2z"/>
<path d="M15995 8144 c0 -19 5 -34 11 -34 6 0 9 13 6 30 -6 42 -17 45 -17 4z"/>
<path d="M16038 8173 c7 -3 16 -2 19 1 4 3 -2 6 -13 5 -11 0 -14 -3 -6 -6z"/>
<path d="M16091 8174 c21 -6 22 -54 2 -54 -8 0 -11 5 -7 12 4 7 3 8 -5 4 -16
-10 -4 -26 20 -26 29 0 23 64 -6 67 -13 1 -14 0 -4 -3z"/>
<path d="M16147 8173 c-3 -5 5 -8 18 -8 13 0 21 3 18 8 -2 4 -10 7 -18 7 -8 0
-16 -3 -18 -7z"/>
<path d="M16260 8176 c0 -2 7 -6 15 -10 8 -3 15 -1 15 4 0 6 -7 10 -15 10 -8
0 -15 -2 -15 -4z"/>
<path d="M16319 8176 c-6 -10 -1 -66 6 -66 6 0 11 12 10 27 0 14 6 28 14 31
10 3 13 -3 9 -27 -3 -20 0 -31 7 -31 9 0 10 10 6 33 -5 24 -12 32 -29 33 -12
1 -22 1 -23 0z"/>
<path d="M16400 8176 c0 -2 9 -6 20 -9 11 -3 18 -1 14 4 -5 9 -34 13 -34 5z"/>
<path d="M16470 8176 c0 -2 7 -7 16 -10 8 -3 12 -2 9 4 -6 10 -25 14 -25 6z"/>
<path d="M17139 8176 c-6 -10 -1 -66 6 -66 6 0 11 12 10 27 0 14 6 28 14 31
10 3 13 -3 9 -27 -3 -20 0 -31 7 -31 9 0 10 10 6 33 -5 24 -12 32 -29 33 -12
1 -22 1 -23 0z"/>
<path d="M17270 8176 c0 -2 7 -7 16 -10 8 -3 12 -2 9 4 -6 10 -25 14 -25 6z"/>
<path d="M17370 8176 c0 -2 9 -6 20 -9 11 -3 18 -1 14 4 -5 9 -34 13 -34 5z"/>
<path d="M17485 8170 c9 -15 45 -32 45 -22 0 5 -12 14 -26 20 -14 7 -23 8 -19
2z"/>
<path d="M17580 8171 c13 -9 13 -11 -2 -11 -9 0 -19 -4 -22 -9 -3 -4 6 -6 20
-3 26 5 28 23 3 30 -11 3 -11 2 1 -7z"/>
<path d="M17790 8176 c0 -2 9 -6 20 -9 11 -3 18 -1 14 4 -5 9 -34 13 -34 5z"/>
<path d="M17859 8176 c-6 -10 -1 -66 6 -66 6 0 11 12 10 27 0 14 6 28 14 31
10 3 13 -3 9 -27 -3 -20 0 -31 7 -31 9 0 10 10 6 33 -5 24 -12 32 -29 33 -12
1 -22 1 -23 0z"/>
<path d="M14800 8159 c0 -21 32 -49 56 -48 14 1 13 3 -6 8 -14 4 -30 18 -37
31 -8 16 -13 19 -13 9z"/>
<path d="M15780 8159 c0 -21 32 -49 56 -48 14 1 13 3 -6 8 -14 4 -30 18 -37
31 -8 16 -13 19 -13 9z"/>
<path d="M15045 8145 c17 -14 18 -17 5 -26 -12 -9 -12 -10 -1 -7 24 7 24 26
-1 38 -22 11 -22 11 -3 -5z"/>
<path d="M15160 8156 c0 -3 9 -10 20 -16 11 -6 20 -8 20 -6 0 3 -9 10 -20 16
-11 6 -20 8 -20 6z"/>
<path d="M15881 8149 c-1 -19 26 -45 36 -35 3 3 1 6 -6 6 -6 0 -16 10 -21 23
-6 15 -9 17 -9 6z"/>
<path d="M15931 8144 c0 -11 3 -14 6 -6 3 7 2 16 -1 19 -3 4 -6 -2 -5 -13z"/>
<path d="M17251 8144 c0 -11 3 -14 6 -6 3 7 2 16 -1 19 -3 4 -6 -2 -5 -13z"/>
<path d="M17680 8156 c0 -3 9 -10 20 -16 11 -6 20 -8 20 -6 0 3 -9 10 -20 16
-11 6 -20 8 -20 6z"/>
<path d="M16470 8146 c0 -2 7 -7 16 -10 8 -3 12 -2 9 4 -6 10 -25 14 -25 6z"/>
<path d="M17630 8146 c0 -2 7 -7 16 -10 8 -3 12 -2 9 4 -6 10 -25 14 -25 6z"/>
<path d="M655 8130 c-4 -6 -11 -8 -16 -5 -5 4 -9 2 -9 -4 0 -5 9 -9 20 -8 11
1 20 7 20 14 0 16 -6 17 -15 3z"/>
<path d="M683 8125 c0 -8 4 -12 9 -9 5 3 6 10 3 15 -9 13 -12 11 -12 -6z"/>
<path d="M721 8124 c0 -11 3 -14 6 -6 3 7 2 16 -1 19 -3 4 -6 -2 -5 -13z"/>
<path d="M748 8129 c-4 -10 1 -15 18 -17 17 -1 22 2 17 14 -4 11 -8 12 -13 4
-6 -9 -9 -9 -12 1 -3 10 -6 10 -10 -2z"/>
<path d="M16393 8130 c2 -8 12 -16 23 -17 13 -2 15 -1 4 4 -8 3 -19 11 -23 17
-6 7 -7 6 -4 -4z"/>
<path d="M17363 8130 c2 -8 12 -16 23 -17 13 -2 15 -1 4 4 -8 3 -19 11 -23 17
-6 7 -7 6 -4 -4z"/>
<path d="M17783 8130 c2 -8 12 -16 23 -17 13 -2 15 -1 4 4 -8 3 -19 11 -23 17
-6 7 -7 6 -4 -4z"/>
<path d="M14068 8118 c5 -5 16 -8 23 -6 8 3 3 7 -10 11 -17 4 -21 3 -13 -5z"/>
<path d="M14178 8118 c5 -5 16 -8 23 -6 8 3 3 7 -10 11 -17 4 -21 3 -13 -5z"/>
<path d="M14910 8118 c0 -11 22 -10 39 1 10 7 7 9 -12 8 -15 -1 -27 -5 -27 -9z"/>
<path d="M15098 8118 c5 -5 16 -8 23 -6 8 3 3 7 -10 11 -17 4 -21 3 -13 -5z"/>
<path d="M16148 8118 c5 -5 16 -8 23 -6 8 3 3 7 -10 11 -17 4 -21 3 -13 -5z"/>
<path d="M17567 8119 c7 -7 15 -10 18 -7 3 3 -2 9 -12 12 -14 6 -15 5 -6 -5z"/>
<path d="M16263 8113 c9 -2 23 -2 30 0 6 3 -1 5 -18 5 -16 0 -22 -2 -12 -5z"/>
<path d="M16478 8113 c7 -3 16 -2 19 1 4 3 -2 6 -13 5 -11 0 -14 -3 -6 -6z"/>
<path d="M17088 8113 c6 -2 18 -2 25 0 6 3 1 5 -13 5 -14 0 -19 -2 -12 -5z"/>
<path d="M17498 8113 c7 -3 16 -2 19 1 4 3 -2 6 -13 5 -11 0 -14 -3 -6 -6z"/>
<path d="M17638 8113 c7 -3 16 -2 19 1 4 3 -2 6 -13 5 -11 0 -14 -3 -6 -6z"/>
<path d="M710 8090 c0 -5 7 -10 16 -10 8 0 12 5 9 10 -3 6 -10 10 -16 10 -5 0
-9 -4 -9 -10z"/>
<path d="M756 8087 c3 -10 9 -15 12 -12 3 3 0 11 -7 18 -10 9 -11 8 -5 -6z"/>
<path d="M800 8091 c0 -6 4 -13 10 -16 6 -3 7 1 4 9 -7 18 -14 21 -14 7z"/>
<path d="M18530 8085 c0 -8 7 -15 15 -15 8 0 15 7 15 15 0 8 -7 15 -15 15 -8
0 -15 -7 -15 -15z"/>
<path d="M18625 8089 c-10 -15 1 -23 20 -15 9 3 13 10 10 16 -8 13 -22 13 -30
-1z"/>
<path d="M2335 7673 c8 -21 34 -134 65 -283 12 -58 26 -107 31 -110 5 -3 6
-23 2 -44 -7 -42 1 -42 -110 -2 -40 14 -83 28 -95 29 -14 3 -40 33 -79 93 -32
49 -59 86 -59 81 0 -4 4 -15 10 -25 13 -23 70 -192 65 -192 -3 0 -13 17 -22
37 -17 34 -24 39 -103 61 -47 13 -92 27 -100 32 -9 4 -31 10 -50 14 l-35 6 30
-15 c17 -8 56 -26 88 -40 31 -15 63 -32 70 -39 7 -7 39 -27 71 -44 57 -30 59
-33 92 -114 18 -46 34 -87 34 -91 0 -4 11 -25 25 -45 14 -20 25 -40 25 -43 0
-4 -39 6 -87 22 -49 17 -114 33 -145 38 -63 8 -71 0 -62 -57 15 -91 28 -122
50 -122 13 0 26 -4 29 -10 8 -14 -50 -13 -78 1 -25 12 93 -106 138 -138 29
-21 29 -22 5 -16 l-25 6 20 -23 c18 -21 18 -23 2 -17 -73 27 -166 43 -452 77
-93 12 -210 28 -258 36 -83 14 -124 13 -81 -2 10 -4 57 -21 104 -39 165 -63
252 -87 505 -141 113 -23 141 -34 70 -26 -33 4 -130 7 -215 6 -161 -1 -225
-11 -325 -53 l-50 -21 45 7 c107 19 336 1 470 -35 41 -11 116 -28 166 -37 l90
-16 -4 -29 c-6 -41 -57 -58 -101 -35 -17 8 -31 13 -31 10 0 -2 23 -16 50 -30
32 -16 48 -30 44 -37 -5 -8 -2 -9 10 -5 11 5 15 3 10 -5 -5 -7 -2 -9 8 -6 9 4
15 0 15 -8 0 -10 -16 -5 -54 17 -54 30 -55 30 -97 14 -39 -15 -66 -16 -252 -6
-132 7 -237 18 -286 30 -43 10 -78 15 -78 10 0 -8 80 -40 150 -59 54 -14 104
-40 145 -73 l29 -25 -119 -60 c-206 -104 -204 -114 9 -48 77 25 155 48 171 52
l30 6 -40 13 -40 13 40 1 c22 1 51 4 65 6 14 3 19 3 13 -1 -21 -10 -14 -24 11
-24 14 0 27 -4 30 -9 3 -5 22 -12 42 -15 51 -10 38 -32 -17 -28 l-44 2 28 -16
c21 -11 27 -20 22 -32 -4 -9 -10 -28 -13 -42 -5 -24 -4 -24 15 -7 11 9 22 15
24 13 2 -2 23 -7 47 -11 47 -7 55 5 20 29 -33 23 -14 19 50 -10 31 -15 62 -27
67 -28 60 -12 77 -61 49 -145 -18 -57 -52 -86 -127 -108 -78 -23 -207 -77
-352 -148 -71 -34 -146 -70 -165 -79 -21 -9 -25 -13 -10 -10 14 4 32 8 40 9 8
1 28 7 45 14 41 17 190 51 223 51 16 0 32 3 38 8 11 8 -57 -58 -133 -129 -29
-27 -60 -49 -70 -50 -11 0 -13 -3 -5 -6 8 -3 -5 -21 -34 -49 -26 -24 -44 -44
-41 -44 9 0 89 41 106 54 7 5 19 11 25 12 7 1 51 26 97 57 46 30 131 84 189
119 96 59 111 65 175 71 l70 6 -35 -17 c-206 -95 -266 -125 -312 -155 -29 -20
-78 -48 -108 -62 -58 -29 -272 -166 -267 -172 6 -5 102 26 231 74 191 70 249
94 283 113 l31 18 -29 -43 c-16 -24 -29 -49 -29 -57 0 -8 -5 -19 -12 -26 -17
-17 -1 -27 19 -11 13 11 12 7 -4 -16 -11 -16 -28 -48 -37 -70 -15 -38 -15 -39
2 -16 43 62 177 220 215 254 36 32 125 97 165 121 54 32 -106 -138 -319 -339
-108 -102 -112 -108 -62 -100 l38 6 -39 -35 c-21 -20 -42 -33 -47 -31 -4 3
-18 -5 -31 -18 -13 -14 -49 -43 -80 -65 -51 -38 -77 -62 -64 -62 11 0 146 68
174 89 43 31 165 85 234 105 42 12 65 26 89 54 22 25 27 28 15 10 -13 -23 -14
-28 -2 -28 7 0 19 7 26 15 7 8 16 12 21 9 5 -3 9 0 9 5 0 6 7 11 15 11 9 0 47
16 86 35 l70 36 -6 -33 c-6 -36 -15 -381 -10 -376 7 6 34 152 38 198 l4 45 2
-50 c1 -27 8 -88 15 -135 l13 -85 2 60 c1 33 8 120 15 193 13 116 19 142 48
198 39 77 36 76 172 19 48 -20 124 -44 167 -53 44 -9 78 -21 76 -27 -52 -143
-79 -237 -73 -258 7 -28 52 -87 67 -87 6 0 3 10 -5 22 -33 47 -10 128 57 203
l36 40 0 -35 c1 -19 -6 -75 -14 -125 -8 -49 -18 -117 -21 -150 -4 -33 -21 -97
-39 -143 -19 -45 -30 -80 -25 -77 14 9 60 93 60 110 0 9 6 23 14 30 16 16 106
239 151 374 17 52 36 96 43 99 6 2 18 -12 28 -30 25 -50 145 -230 150 -225 2
2 -18 63 -45 136 -33 89 -46 133 -38 136 7 2 32 9 57 15 130 32 332 130 268
130 -6 0 -9 2 -6 5 3 3 43 -13 90 -35 47 -22 94 -40 104 -40 9 0 74 -55 143
-122 130 -128 132 -128 41 -7 -56 74 -103 149 -95 149 3 0 16 -18 29 -39 19
-29 38 -43 73 -56 26 -10 77 -31 113 -48 72 -34 80 -36 80 -22 0 6 -7 10 -16
10 -25 0 -100 80 -160 173 -32 48 -74 110 -95 138 -40 55 -42 80 -9 119 13 15
69 98 96 143 3 5 247 -73 503 -159 112 -38 207 -69 210 -69 13 0 -60 40 -127
69 -38 17 -139 70 -224 118 -85 49 -188 103 -230 121 -76 34 -76 34 -66 63 5
16 17 29 25 29 18 0 198 -45 278 -70 33 -10 148 -50 255 -90 297 -109 363
-131 390 -128 17 2 -6 15 -81 46 -59 24 -198 93 -310 154 -210 113 -367 188
-453 217 -27 9 -52 22 -54 30 -4 12 15 13 119 7 114 -6 220 -18 277 -31 39 -9
23 12 -25 33 -43 18 -224 61 -325 77 -62 10 -48 32 50 77 162 75 187 87 265
132 44 24 98 47 120 50 78 12 119 27 114 40 -7 17 400 90 651 117 103 11 198
24 212 29 25 8 25 8 -5 10 -16 2 -82 1 -145 -1 -122 -4 -217 -4 -615 2 -137 2
-307 0 -377 -4 l-127 -8 39 88 c22 48 40 93 40 99 0 5 14 20 30 32 34 26 41
49 10 32 -21 -11 -22 -7 -4 60 12 45 21 170 16 204 -11 64 -32 57 -32 -11 0
-67 -18 -139 -57 -233 -23 -57 -33 -70 -67 -87 -23 -11 -83 -42 -135 -69 -52
-26 -96 -44 -98 -38 -2 5 -21 40 -42 76 -35 60 -38 71 -31 105 5 21 12 87 15
146 l7 108 58 77 c31 42 105 127 164 187 167 172 217 225 274 293 53 62 53 62
26 62 -16 0 -40 -11 -58 -27 -17 -16 -24 -19 -16 -8 8 11 20 23 25 27 6 4 1 8
-10 8 -12 0 -42 -22 -70 -51 -28 -28 -90 -84 -140 -124 -49 -40 -112 -94 -140
-120 -51 -48 -94 -77 -80 -56 3 7 9 28 11 47 4 29 1 35 -12 32 -11 -2 -25 -26
-39 -67 -20 -61 -36 -82 -113 -143 -25 -20 -42 -24 -24 -6 17 17 15 31 -3 24
-8 -3 -15 -2 -15 3 0 16 13 19 31 8 14 -9 21 -9 31 1 11 11 10 12 -4 7 -11 -4
-18 -2 -18 4 0 6 5 11 10 11 6 0 10 5 10 10 0 6 -6 10 -14 10 -8 0 -22 10 -30
22 -9 12 -16 18 -16 13 0 -6 -4 -4 -9 3 -4 8 -7 29 -5 48 1 19 -2 32 -7 28
-14 -8 -11 9 6 33 13 18 13 23 -4 42 -10 11 -23 21 -30 21 -6 0 -11 5 -11 10
0 6 -11 16 -25 22 -16 7 -25 19 -25 34 0 13 -4 26 -10 29 -9 6 -9 39 1 49 2 2
78 12 169 22 91 9 194 20 230 24 36 4 -197 8 -517 8 l-581 2 19 -40 c24 -49
80 -200 75 -200 -13 0 -86 134 -87 157 0 16 -4 37 -8 48 -7 15 -9 11 -9 -18 0
-21 -3 -41 -6 -44 -3 -4 -6 2 -6 13 0 32 -38 84 -61 84 -16 0 -19 -4 -14 -22
l6 -23 -20 23 c-14 16 -29 22 -58 21 -21 -1 -31 -3 -22 -6 10 -2 20 -19 24
-41 3 -20 18 -62 31 -92 14 -30 32 -75 41 -100 8 -25 18 -47 22 -50 9 -7 31
-59 31 -73 0 -7 -7 -3 -15 7 -14 19 -15 18 -15 -10 -1 -19 -14 10 -38 81 -22
65 -38 101 -40 88 -3 -17 24 -190 41 -265 2 -8 -74 -35 -104 -38 -4 0 -23 33
-43 73 -43 88 -136 230 -176 272 -17 17 -30 37 -30 44 0 7 -4 10 -8 7 -4 -2
-23 20 -42 50 l-35 54 -79 0 -79 0 20 -22 c27 -30 153 -225 153 -237 0 -5 5
-13 12 -17 8 -5 9 4 4 35 -4 24 -3 40 2 37 5 -3 12 -25 15 -48 3 -24 13 -65
21 -92 13 -40 13 -47 2 -43 -23 9 -27 -18 -15 -98 15 -100 10 -111 -36 -83
-20 11 -41 33 -46 47 -6 14 -17 39 -25 55 -8 16 -14 33 -14 38 0 5 -11 37 -24
71 -13 34 -27 80 -32 102 l-7 40 -12 -70 -12 -70 -2 55 c0 30 -8 69 -17 85 -9
17 -25 53 -35 82 -18 46 -23 70 -28 121 0 6 -10 12 -22 12 -16 0 -19 -4 -14
-17z m1098 -15 c62 -9 67 -12 61 -30 -6 -20 -6 -20 17 1 16 15 25 18 28 9 2
-6 -1 -14 -7 -16 -7 -2 -12 -10 -12 -17 0 -7 -11 -26 -24 -42 -13 -15 -26 -38
-30 -50 -4 -13 -14 -23 -22 -23 -8 0 -14 -2 -14 -4 0 -2 -3 -13 -6 -23 -6 -16
-5 -16 10 2 17 20 17 20 6 -2 -6 -13 -14 -23 -18 -23 -7 0 -116 195 -130 231
-3 8 18 6 141 -13z m-834 -93 c13 -22 15 -31 6 -20 -18 22 -53 86 -38 70 6 -5
20 -28 32 -50z m1118 8 c-3 -10 -5 -2 -5 17 0 19 2 27 5 18 2 -10 2 -26 0 -35z
m-617 -143 c0 -33 -16 -22 -28 19 -18 57 -14 70 8 33 11 -18 20 -41 20 -52z
m370 -57 c0 -5 -10 -19 -23 -33 -12 -14 -19 -21 -14 -16 16 21 6 28 -15 10
-13 -10 -10 -4 6 14 29 31 46 40 46 25z m-305 -60 c10 -26 22 -52 26 -57 14
-15 11 -26 -6 -26 -19 0 -54 74 -55 113 0 39 14 27 35 -30z m447 -35 c2 -25 0
-44 -4 -42 -3 2 -9 -2 -11 -8 -3 -7 -4 7 -2 32 2 25 5 56 6 70 2 32 7 8 11
-52z m-363 -3 l0 -20 -9 20 c-5 11 -9 27 -9 35 -1 13 0 13 9 0 5 -8 9 -24 9
-35z m141 22 c0 -2 -10 -12 -22 -23 l-23 -19 19 23 c18 21 26 27 26 19z m-611
-168 c-29 -18 -39 -7 -64 72 -14 44 -25 83 -25 87 0 4 23 -28 51 -72 40 -61
48 -80 38 -87z m308 139 c-3 -8 -6 -5 -6 6 -1 11 2 17 5 13 3 -3 4 -12 1 -19z
m810 -30 c-3 -8 -6 -5 -6 6 -1 11 2 17 5 13 3 -3 4 -12 1 -19z m-10 -55 c-3
-10 -5 -4 -5 12 0 17 2 24 5 18 2 -7 2 -21 0 -30z m-1062 -74 c-14 -30 -25
-48 -25 -41 0 18 40 105 46 99 2 -2 -7 -28 -21 -58z m-455 -9 c21 -11 45 -18
52 -16 7 3 38 7 68 10 41 4 49 3 31 -4 -13 -6 -41 -11 -63 -12 l-40 -1 6 -64
c7 -70 -2 -80 -27 -30 -8 17 -30 56 -47 85 -17 28 -28 52 -25 52 3 0 23 -9 45
-20z m87 -117 c-3 -10 -5 -2 -5 17 0 19 2 27 5 18 2 -10 2 -26 0 -35z m81 11
c20 5 23 4 12 -4 -8 -5 -25 -10 -37 -10 -19 0 -23 5 -22 28 0 27 0 27 10 3 7
-19 14 -22 37 -17z m1562 -4 c0 -10 -36 -33 -58 -36 -6 -1 -10 2 -6 7 3 5 12
9 20 9 8 0 17 7 20 15 7 17 24 21 24 5z m-678 -45 c-2 -14 -8 -25 -13 -25 -12
0 -11 7 1 31 14 26 18 24 12 -6z m-1292 -45 c90 -44 92 -51 24 -75 l-39 -14
31 -1 c17 0 46 5 63 11 45 16 79 -4 102 -59 23 -53 23 -49 -1 -62 -26 -14
-139 43 -195 98 -49 48 -103 142 -83 142 8 0 52 -18 98 -40z m165 -28 c-8 -8
-25 10 -25 26 0 13 2 13 14 -4 8 -10 13 -21 11 -22z m446 -41 c85 -98 141
-173 109 -146 -13 11 -37 35 -53 52 -16 18 -33 31 -37 28 -5 -3 -11 1 -13 7
-4 8 -6 9 -6 2 -1 -7 10 -19 23 -28 23 -15 33 -56 13 -56 -5 0 -6 7 -3 16 3 8
2 13 -3 9 -5 -3 -20 16 -32 42 -13 27 -38 72 -57 101 -46 75 -18 62 59 -27z
m-247 4 c7 -48 -8 -19 -18 35 -5 23 -4 30 2 20 5 -8 12 -33 16 -55z m-460 29
c3 -8 2 -12 -4 -9 -6 3 -10 10 -10 16 0 14 7 11 14 -7z m1366 -9 c0 -14 -4
-25 -9 -25 -4 0 -6 11 -3 25 2 14 6 25 8 25 2 0 4 -11 4 -25z m-319 -2 c13
-16 12 -17 -3 -4 -17 13 -22 21 -14 21 2 0 10 -8 17 -17z m306 -85 c-3 -8 -6
-5 -6 6 -1 11 2 17 5 13 3 -3 4 -12 1 -19z m167 -7 c-45 -32 -93 -49 -73 -25
6 8 17 14 23 14 6 0 22 9 36 20 14 11 32 20 39 20 8 0 -3 -13 -25 -29z m-888
-6 c-22 -16 -57 -21 -40 -6 7 8 29 15 54 20 3 0 -4 -6 -14 -14z m1755 -73 c-6
-11 -33 -40 -60 -64 -90 -78 -151 -97 -151 -48 0 11 4 20 8 20 5 0 47 23 93
50 116 69 114 68 117 65 2 -2 -1 -12 -7 -23z m-2194 -42 c-19 -16 -39 -30 -43
-30 -11 1 57 60 68 60 5 0 -7 -13 -25 -30z m20 -96 c-3 -3 -12 -4 -19 -1 -8 3
-5 6 6 6 11 1 17 -2 13 -5z m-27 -34 c0 -13 -40 -13 -60 0 -11 7 -5 10 23 10
20 0 37 -4 37 -10z m2565 -80 c-10 -11 -21 -17 -24 -14 -3 3 3 12 13 20 28 20
32 17 11 -6z m-258 -101 c-20 -12 -246 -89 -259 -89 -4 0 -8 9 -8 19 0 16 13
22 78 36 42 9 102 22 132 30 69 16 80 17 57 4z m-1300 -131 c-2 -13 -4 -3 -4
22 0 25 2 35 4 23 2 -13 2 -33 0 -45z m-977 12 c8 -5 11 -10 5 -10 -5 0 -17 5
-25 10 -8 5 -10 10 -5 10 6 0 17 -5 25 -10z m1245 0 c3 -5 1 -10 -4 -10 -6 0
-11 5 -11 10 0 6 2 10 4 10 3 0 8 -4 11 -10z m-1131 -34 c-3 -15 -8 -25 -11
-23 -2 3 -1 17 3 31 3 15 8 25 11 23 2 -3 1 -17 -3 -31z m-407 -42 c-3 -3 -12
-4 -19 -1 -8 3 -5 6 6 6 11 1 17 -2 13 -5z m1823 -83 c-19 -37 -30 -22 -12 15
11 23 18 31 20 21 2 -9 -2 -25 -8 -36z m-1448 14 c3 -13 1 -22 -4 -19 -5 3 -6
-5 -3 -18 4 -13 -1 -44 -9 -69 -9 -24 -16 -62 -16 -84 -1 -37 -2 -38 -11 -15
-7 17 -7 35 -1 55 6 17 13 53 17 80 7 55 16 95 20 95 1 0 5 -11 7 -25z m743
-35 c3 -5 1 -10 -4 -10 -6 0 -11 5 -11 10 0 6 2 10 4 10 3 0 8 -4 11 -10z
m675 -13 c0 -2 -10 -12 -22 -23 l-23 -19 19 23 c18 21 26 27 26 19z m-1010
-61 c0 -2 -8 -10 -17 -17 -16 -13 -17 -12 -4 4 13 16 21 21 21 13z m419 -51
c0 -5 -6 -1 -14 9 -8 11 -15 24 -15 30 0 5 7 1 15 -10 8 -10 14 -23 14 -29z
m12 -38 c-5 -5 -7 -17 -5 -26 3 -9 -1 -5 -9 9 -17 28 -13 42 9 33 10 -4 12 -9
5 -16z m-446 -17 c-9 -16 -18 -30 -21 -30 -2 0 2 14 11 30 9 17 18 30 21 30 2
0 -2 -13 -11 -30z m565 -57 c0 -8 -25 4 -51 27 -44 37 -35 45 11 9 22 -18 40
-34 40 -36z m509 12 c5 3 22 0 38 -6 15 -6 23 -13 16 -16 -17 -6 -85 14 -108
32 -18 14 -16 14 13 0 18 -9 37 -13 41 -10z m-1538 -18 c-13 -13 -26 -3 -16
12 3 6 11 8 17 5 6 -4 6 -10 -1 -17z m426 -14 c-8 -15 -18 -39 -22 -53 -7 -24
-5 -23 31 10 35 32 36 32 14 5 -44 -54 -94 -105 -102 -105 -4 0 14 40 40 89
26 49 48 88 50 86 2 -2 -3 -16 -11 -32z m638 -3 c3 -6 -1 -7 -9 -4 -18 7 -21
14 -7 14 6 0 13 -4 16 -10z m257 -25 c2 -19 3 -35 1 -35 -8 0 -23 52 -17 61 9
15 12 11 16 -26z m-808 -139 c-10 -8 -21 -12 -24 -9 -3 2 4 11 14 19 11 7 22
12 25 9 2 -3 -4 -12 -15 -19z m-804 -30 c0 -2 -8 -10 -17 -17 -16 -13 -17 -12
-4 4 13 16 21 21 21 13z m900 -41 c0 -5 -5 -3 -10 5 -5 8 -10 20 -10 25 0 6 5
3 10 -5 5 -8 10 -19 10 -25z m191 -12 c13 -16 12 -17 -3 -4 -10 7 -18 15 -18
17 0 8 8 3 21 -13z m306 -50 c-3 -10 -5 -4 -5 12 0 17 2 24 5 18 2 -7 2 -21 0
-30z m-229 -28 c17 -16 30 -30 28 -32 -8 -8 -57 30 -78 61 -24 34 -22 33 50
-29z m627 21 c41 -21 14 -30 -100 -33 -67 -2 -93 0 -80 6 11 5 46 10 77 10 67
1 96 9 76 22 -21 14 -3 10 27 -5z m-376 -71 l0 -20 -9 20 c-5 11 -9 29 -9 40
l0 20 9 -20 c5 -11 9 -29 9 -40z m675 -113 c9 -20 -52 15 -64 37 -5 11 -10 23
-10 26 0 10 67 -47 74 -63z m-1294 28 c-8 -5 -19 -10 -25 -10 -5 0 -3 5 5 10
8 5 20 10 25 10 6 0 3 -5 -5 -10z m-403 -142 c-3 -8 -6 -5 -6 6 -1 11 2 17 5
13 3 -3 4 -12 1 -19z m-250 -42 c-43 -39 -57 -45 -57 -25 0 11 92 80 99 74 2
-3 -16 -25 -42 -49z"/>
<path d="M4060 7280 c-9 -6 -10 -10 -3 -10 6 0 15 5 18 10 8 12 4 12 -15 0z"/>
<path d="M1875 6989 c-27 -4 -68 -15 -90 -23 l-40 -15 45 7 c25 4 78 7 118 7
62 0 72 2 72 18 0 19 -21 20 -105 6z"/>
<path d="M1954 6392 c11 -12 25 -22 33 -22 7 0 13 -5 13 -12 0 -6 3 -8 7 -5 3
4 18 0 32 -10 20 -13 23 -13 14 -1 -7 8 -36 27 -65 43 -47 25 -51 26 -34 7z"/>
<path d="M6859 5990 c-1191 -10 -1239 -12 -1305 -54 -44 -29 -39 -56 52 -321
47 -137 128 -374 179 -525 324 -955 335 -985 358 -1002 42 -32 115 -39 398
-38 l276 1 6 -53 c4 -29 7 -84 7 -122 l0 -68 603 6 c331 3 1521 6 2645 6
l2042 0 0 98 c0 53 3 107 6 120 l6 22 242 -1 c132 0 259 -4 281 -8 52 -9 132
11 161 41 13 13 39 76 62 148 129 401 236 734 257 795 13 39 81 247 151 464
121 373 127 394 113 420 -19 33 -48 47 -129 61 -85 14 -4830 22 -6411 10z
m2643 -692 c-19 -19 -14 -36 16 -46 15 -6 20 -11 12 -11 -23 -1 -62 29 -56 44
3 8 0 16 -7 19 -7 2 1 5 18 5 22 1 26 -2 17 -11z m-74 -14 c-34 -18 -35 -28
-6 -48 12 -9 18 -16 13 -16 -6 0 -21 9 -35 20 l-25 20 24 20 c13 11 31 20 40
20 10 -1 6 -6 -11 -16z m159 -60 c-18 -10 -47 -14 -85 -11 l-57 3 63 2 c34 1
62 7 62 12 0 6 10 10 23 10 21 -1 20 -2 -6 -16z m-767 -154 c0 -5 -9 -10 -20
-10 -15 0 -20 -7 -20 -26 0 -21 -4 -25 -22 -22 -15 2 -24 11 -26 26 -2 14 -10
22 -23 22 -11 0 -17 5 -14 10 3 6 33 10 66 10 33 0 59 -4 59 -10z m217 -4 c4
-7 20 -15 34 -18 22 -4 25 -2 21 15 -4 15 0 18 19 15 18 -2 25 -10 27 -31 4
-34 -21 -46 -47 -23 -22 20 -38 20 -49 0 -11 -21 -46 -14 -50 9 -8 40 26 65
45 33z m318 -21 c0 -23 -5 -31 -22 -33 -20 -3 -23 1 -23 33 0 32 3 36 23 33
17 -2 22 -10 22 -33z m274 29 c21 -4 30 -11 27 -20 -3 -7 0 -15 7 -17 24 -8
-3 -19 -61 -24 -39 -4 -62 -2 -66 6 -4 6 -2 11 5 11 8 0 8 4 -1 15 -10 12 -8
16 11 24 30 12 39 13 78 5z m369 -31 c3 -30 1 -33 -22 -33 -23 0 -26 4 -26 36
0 31 3 35 23 32 17 -2 23 -11 25 -35z m287 28 c22 -5 26 -9 16 -15 -11 -7 -11
-10 0 -17 11 -7 12 -11 1 -17 -19 -13 -119 -14 -127 -2 -3 5 -1 10 6 10 8 0 8
4 -1 15 -22 26 37 41 105 26z m-2484 -143 l12 -23 10 23 c13 28 40 28 65 2
l19 -21 6 21 c6 22 47 29 47 8 -1 -43 -58 -62 -92 -31 -17 15 -18 15 -18 0 0
-25 -49 -22 -77 5 -28 26 -29 38 -3 38 10 0 25 -10 31 -22z m363 7 c3 -8 16
-16 28 -16 l23 -2 -22 -4 c-13 -2 -23 -9 -23 -14 0 -5 -13 -9 -30 -9 -25 0
-30 4 -30 23 0 13 3 27 7 30 12 12 41 7 47 -8z m98 -15 c4 -26 1 -30 -19 -30
-13 0 -23 6 -23 14 0 8 -3 21 -6 30 -5 12 0 16 19 16 20 0 26 -6 29 -30z m256
23 c-40 -4 -44 -9 -28 -33 6 -10 10 -11 10 -2 0 17 28 15 46 -3 14 -13 8 -15
-50 -15 l-66 0 0 30 0 30 63 -2 c41 -1 50 -3 25 -5z m359 -6 c4 -5 1 -12 -6
-16 -7 -5 -10 -14 -7 -20 9 -14 -28 -15 -54 -1 -13 7 -21 7 -25 0 -3 -5 -17
-10 -31 -10 -20 0 -24 5 -24 31 l0 31 69 -4 c39 -2 73 -7 78 -11z m261 6 c-40
-4 -44 -9 -28 -33 6 -10 10 -11 10 -2 0 17 28 15 46 -3 14 -13 8 -15 -50 -15
l-66 0 0 30 0 30 63 -2 c41 -1 50 -3 25 -5z m382 -4 c8 0 29 3 45 7 l30 7 -34
-31 c-18 -18 -39 -32 -46 -32 -7 0 -28 14 -46 31 l-34 32 35 -7 c19 -4 42 -7
50 -7z m340 5 c35 -8 51 -31 29 -45 -16 -10 -109 -12 -133 -3 -25 10 -19 31
12 42 34 13 51 14 92 6z m268 -21 c2 -15 10 -23 22 -23 12 0 20 8 22 23 2 14
11 23 26 25 18 3 22 -1 22 -21 0 -30 -16 -37 -80 -37 -51 0 -75 16 -64 44 10
25 48 16 52 -11z m475 -1 l27 -28 -82 -1 -82 0 32 28 c41 36 71 37 105 1z
m322 19 c19 -8 19 -8 0 -19 -17 -10 -18 -13 -5 -22 12 -7 8 -10 -15 -10 -17 0
-37 6 -44 13 -11 10 -14 10 -18 0 -7 -18 -63 -17 -63 1 0 38 12 46 69 45 31 0
65 -4 76 -8z m273 2 c-30 -3 -38 -9 -38 -24 0 -10 5 -19 10 -19 6 0 10 5 10
10 0 16 37 12 44 -5 4 -12 -6 -15 -59 -15 -36 0 -65 3 -65 8 0 4 3 17 6 30 6
20 12 22 68 20 42 -1 49 -3 24 -5z m-1813 -190 c-16 -3 -33 -10 -37 -16 -5 -8
-8 -6 -8 6 0 13 8 17 38 16 34 -2 34 -2 7 -6z m255 -8 c0 -8 -4 -15 -10 -15
-5 0 -10 4 -10 9 0 5 -12 12 -27 14 -23 3 -21 4 10 6 27 1 37 -3 37 -14z
m-174 -33 c-13 -2 -32 -12 -42 -23 -9 -10 -22 -19 -28 -19 -6 0 -3 5 7 11 26
15 20 29 -13 29 -16 0 -30 3 -30 8 0 4 23 5 51 3 38 -2 50 0 44 9 -5 8 0 7 14
-2 l22 -13 -25 -3z m348 3 c-19 -14 -18 -14 2 -15 20 0 34 -17 34 -41 0 -5
-15 -8 -32 -8 l-33 1 29 7 c23 5 26 8 15 17 -8 6 -23 14 -34 18 -19 7 -19 8 5
26 14 10 27 17 29 14 3 -2 -4 -11 -15 -19z m-509 -3 c-3 -3 -11 0 -18 7 -9 10
-8 11 6 5 10 -3 15 -9 12 -12z m326 4 c8 -4 28 -2 43 4 17 6 25 6 21 0 -3 -6
-14 -10 -23 -10 -12 0 -13 -3 -4 -12 22 -22 14 -38 -20 -37 -32 1 -32 2 -6 8
41 9 20 32 -36 38 -48 6 -62 -7 -28 -26 9 -6 12 -11 6 -11 -6 0 -19 9 -29 20
-10 11 -27 20 -37 20 -11 0 -17 3 -15 8 6 9 106 7 128 -2z m-378 -26 c-5 -19
-31 -35 -41 -25 -3 3 0 5 6 5 7 0 12 7 12 15 0 17 -18 19 -54 5 -32 -12 -33
-27 -3 -33 15 -3 12 -5 -12 -6 -29 -1 -33 2 -28 20 4 15 2 19 -10 15 -8 -3
-25 -6 -38 -6 -15 0 -22 -6 -21 -16 0 -9 -5 -19 -12 -21 -7 -3 -10 1 -6 11 7
18 -13 21 -36 6 -13 -9 -13 -11 0 -20 8 -5 11 -10 6 -10 -5 0 -17 8 -26 17
-16 17 -14 19 29 30 25 7 57 12 71 13 18 0 21 3 12 9 -8 5 8 6 39 3 30 -3 50
-1 46 4 -3 5 11 8 33 6 31 -3 37 -7 33 -22z m92 20 c3 -5 0 -10 -8 -10 -8 0
-17 -6 -20 -14 -4 -10 3 -16 21 -19 24 -4 24 -4 -5 -6 -35 -1 -40 8 -21 39 14
22 24 25 33 10z m-310 -18 c-3 -3 -11 0 -18 7 -9 10 -8 11 6 5 10 -3 15 -9 12
-12z m728 11 c-16 -6 -17 -29 -3 -36 6 -3 5 -4 -1 -3 -7 1 -19 12 -27 24 -14
21 -13 22 14 21 16 0 23 -3 17 -6z m127 3 c0 -2 -7 -7 -16 -10 -8 -3 -12 -2
-9 4 6 10 25 14 25 6z m75 -6 c-3 -5 -12 -10 -18 -10 -7 0 -6 4 3 10 19 12 23
12 15 0z m5 -25 c30 -7 48 -14 39 -14 -9 -1 -19 -8 -23 -16 -3 -8 -11 -15 -18
-15 -10 0 -10 2 1 9 18 12 5 31 -21 31 -14 0 -18 -5 -14 -16 4 -10 1 -14 -6
-12 -7 3 -13 11 -13 19 0 8 -7 17 -15 21 -27 12 9 9 70 -7z m1993 -790 c20
-14 17 -15 -48 -16 -39 -1 -62 -3 -52 -6 9 -2 17 -8 17 -11 0 -10 -93 -2 -105
9 -5 5 -21 9 -37 9 -21 0 -26 -4 -21 -16 4 -12 2 -15 -8 -12 -8 3 -13 11 -12
17 4 15 -44 14 -51 -1 -5 -10 -7 -10 -12 0 -6 13 -86 18 -81 5 1 -5 -3 -8 -8
-8 -5 0 -9 3 -8 8 2 4 -103 7 -232 7 -206 0 -235 -2 -235 -16 0 -8 -5 -12 -10
-9 -6 4 -8 11 -5 16 4 5 -16 9 -44 9 -34 0 -51 -4 -52 -12 0 -10 -2 -10 -6 0
-7 17 -43 15 -43 -3 0 -8 -5 -15 -11 -15 -6 0 -9 7 -5 15 4 11 -1 15 -17 15
-18 0 -19 -2 -7 -10 13 -8 12 -10 -2 -10 -10 0 -18 5 -18 10 0 6 -11 10 -25
10 -16 0 -25 -6 -25 -15 0 -8 -5 -15 -11 -15 -6 0 -9 7 -5 15 4 12 -4 15 -40
15 -28 0 -43 -4 -39 -10 3 -6 -4 -10 -17 -10 -18 0 -20 2 -8 10 11 7 12 10 2
10 -7 0 -20 -7 -28 -15 -20 -19 -34 -19 -34 0 0 13 -25 15 -180 15 -161 -1
-180 -3 -181 -18 -1 -15 -2 -15 -6 1 -3 13 -15 17 -54 17 -32 0 -49 -4 -50
-12 0 -10 -2 -10 -6 0 -3 8 -34 12 -104 12 -81 0 -99 -3 -99 -15 0 -8 -5 -15
-11 -15 -6 0 -9 6 -6 13 4 10 -28 13 -154 14 -140 0 -159 -1 -160 -16 -1 -13
-2 -13 -5 -1 -6 21 -141 21 -154 0 -8 -13 -10 -13 -10 0 0 13 -13 15 -72 12
-41 -2 -76 -9 -80 -15 -6 -9 -10 -9 -16 0 -11 17 -142 22 -142 6 0 -7 -4 -13
-10 -13 -5 0 -10 4 -10 9 0 5 -32 11 -70 13 -51 2 -70 0 -70 -9 0 -7 -4 -13
-10 -13 -5 0 -10 5 -10 10 0 15 -137 13 -144 -2 -5 -10 -7 -10 -12 0 -4 8 -30
12 -80 12 -52 0 -74 -4 -75 -12 0 -10 -2 -10 -6 0 -6 15 -313 18 -313 2 0 -5
-22 -10 -50 -10 -33 0 -50 4 -50 13 0 8 -4 7 -10 -3 -6 -10 -10 -11 -10 -2 0
6 -9 12 -20 12 -11 0 -20 -4 -20 -10 0 -6 -28 -10 -65 -10 -37 0 -65 4 -65 10
0 6 -7 10 -15 10 -8 0 -15 -5 -15 -10 0 -6 -24 -10 -60 -9 -33 1 -60 6 -60 10
0 5 -9 9 -20 9 -11 0 -20 -5 -20 -11 0 -13 -108 -9 -134 5 -14 8 -20 8 -23 -1
-6 -16 -133 -18 -133 -3 0 6 -7 10 -15 10 -8 0 -15 -4 -15 -10 0 -6 -28 -10
-65 -10 -37 0 -65 4 -65 10 0 6 -7 10 -15 10 -8 0 -15 -4 -15 -10 0 -6 -28
-10 -65 -10 -37 0 -65 4 -65 10 0 6 -9 10 -20 10 -11 0 -19 -5 -17 -12 3 -14
-116 -11 -121 3 -5 12 -42 12 -42 -1 0 -5 -17 -9 -37 -9 -38 1 -38 1 -8 9 l30
8 -33 1 c-29 1 -32 3 -22 21 10 19 23 20 383 23 205 2 1323 2 2485 1 1878 -3
2115 -5 2135 -19z m-2183 -35 c0 -5 -4 -10 -10 -10 -5 0 -10 5 -10 10 0 6 5
10 10 10 6 0 10 -4 10 -10z m650 6 c0 -3 -4 -8 -10 -11 -5 -3 -10 -1 -10 4 0
6 5 11 10 11 6 0 10 -2 10 -4z m320 -6 c0 -5 -4 -10 -9 -10 -6 0 -13 5 -16 10
-3 6 1 10 9 10 9 0 16 -4 16 -10z m87 4 c-3 -3 -12 -4 -19 -1 -8 3 -5 6 6 6
11 1 17 -2 13 -5z m176 -1 c-7 -2 -19 -2 -25 0 -7 3 -2 5 12 5 14 0 19 -2 13
-5z m180 0 c-7 -2 -19 -2 -25 0 -7 3 -2 5 12 5 14 0 19 -2 13 -5z m42 -3 c-3
-5 -10 -10 -16 -10 -5 0 -9 5 -9 10 0 6 7 10 16 10 8 0 12 -4 9 -10z m165 6
c0 -11 -19 -15 -25 -6 -3 5 1 10 9 10 9 0 16 -2 16 -4z m113 -3 c-7 -2 -21 -2
-30 0 -10 3 -4 5 12 5 17 0 24 -2 18 -5z m257 -3 c0 -5 -2 -10 -4 -10 -3 0 -8
5 -11 10 -3 6 -1 10 4 10 6 0 11 -4 11 -10z"/>
<path d="M9588 5053 c6 -2 18 -2 25 0 6 3 1 5 -13 5 -14 0 -19 -2 -12 -5z"/>
<path d="M9588 5023 c6 -2 18 -2 25 0 6 3 1 5 -13 5 -14 0 -19 -2 -12 -5z"/>
<path d="M10238 5053 c7 -3 16 -2 19 1 4 3 -2 6 -13 5 -11 0 -14 -3 -6 -6z"/>
<path d="M10228 5023 c6 -2 18 -2 25 0 6 3 1 5 -13 5 -14 0 -19 -2 -12 -5z"/>
<path d="M8780 4930 c0 -5 9 -10 20 -10 11 0 20 5 20 10 0 6 -9 10 -20 10 -11
0 -20 -4 -20 -10z"/>
<path d="M9801 4931 c-19 -12 -4 -31 25 -31 19 0 25 5 22 17 -4 20 -27 27 -47
14z"/>
<path d="M10835 4930 c-4 -6 5 -10 19 -10 14 0 26 5 26 10 0 6 -9 10 -19 10
-11 0 -23 -4 -26 -10z"/>
<path d="M14440 4284 c0 -8 5 -12 10 -9 6 3 10 10 10 16 0 5 -4 9 -10 9 -5 0
-10 -7 -10 -16z"/>
<path d="M14630 4260 c0 -5 5 -10 10 -10 6 0 10 5 10 10 0 6 -4 10 -10 10 -5
0 -10 -4 -10 -10z"/>
<path d="M14326 4203 c-11 -11 -6 -23 9 -23 8 0 15 4 15 9 0 13 -16 22 -24 14z"/>
<path d="M14680 4200 c0 -5 5 -10 11 -10 5 0 7 5 4 10 -3 6 -8 10 -11 10 -2 0
-4 -4 -4 -10z"/>
<path d="M14176 4101 c-4 -7 -5 -15 -2 -18 9 -9 19 4 14 18 -4 11 -6 11 -12 0z"/>
<path d="M14766 4072 c-2 -4 -1 -14 4 -22 7 -11 12 -12 21 -3 6 6 8 16 5 22
-8 13 -23 14 -30 3z"/>
<path d="M14250 4055 c0 -8 5 -15 10 -15 6 0 10 7 10 15 0 8 -4 15 -10 15 -5
0 -10 -7 -10 -15z"/>
<path d="M14828 4054 c-8 -7 2 -44 12 -44 11 0 21 30 14 41 -6 10 -18 12 -26
3z"/>
<path d="M14002 4018 c6 -18 25 -20 31 -3 5 10 0 15 -14 15 -12 0 -19 -5 -17
-12z"/>
<path d="M14180 3785 c0 -9 5 -15 11 -13 6 2 11 8 11 13 0 5 -5 11 -11 13 -6
2 -11 -4 -11 -13z"/>
<path d="M12863 3754 c-3 -9 -3 -739 0 -1623 4 -883 7 -1724 7 -1868 l0 -263
140 0 140 0 0 68 c-1 37 -5 86 -9 109 -4 23 -5 47 0 54 4 7 3 22 -2 33 -10 22
-50 442 -54 561 -1 39 -7 167 -13 285 -23 433 -26 486 -24 520 1 19 -2 44 -7
55 -5 11 -14 166 -21 345 -6 179 -15 343 -19 365 -6 31 -6 440 -1 825 1 55
-20 188 -39 245 -11 34 -16 61 -11 63 12 4 11 113 0 157 -4 17 -8 24 -9 18 -2
-27 -19 -11 -26 25 -6 31 -9 34 -15 17 -8 -19 -9 -19 -9 3 -1 26 -19 30 -28 6z
m37 -184 c0 -29 4 -40 15 -40 13 0 14 -4 4 -22 l-11 -21 -14 24 c-16 28 -19
99 -4 99 6 0 10 -18 10 -40z m-23 -87 c-3 -10 -5 -4 -5 12 0 17 2 24 5 18 2
-7 2 -21 0 -30z m20 -35 c-3 -8 -6 -5 -6 6 -1 11 2 17 5 13 3 -3 4 -12 1 -19z"/>
<path d="M15521 3744 c0 -11 3 -14 6 -6 3 7 2 16 -1 19 -3 4 -6 -2 -5 -13z"/>
<path d="M15536 3714 c-3 -9 -11 -58 -17 -109 -23 -214 -109 -396 -248 -529
-34 -31 -61 -62 -61 -68 0 -6 -3 -9 -6 -5 -4 3 -25 -7 -48 -22 -87 -60 -226
-116 -314 -128 -74 -9 -80 -20 -15 -27 l60 -7 -44 -44 c-25 -24 -42 -49 -38
-55 3 -5 -1 -10 -10 -10 -9 0 -14 -4 -11 -9 3 -5 15 -7 26 -4 11 3 30 -1 43
-10 26 -17 107 -27 107 -13 0 5 3 7 6 4 6 -7 -20 -63 -41 -88 -24 -30 -97
-215 -102 -262 -8 -68 11 -123 87 -256 56 -98 66 -123 62 -153 -2 -22 1 -41
10 -50 9 -9 11 -25 8 -44 l-6 -30 -16 30 c-8 17 -23 55 -33 85 l-18 55 -13
-35 c-7 -19 -13 -55 -13 -80 -1 -58 33 -159 59 -177 29 -21 50 -66 50 -110 0
-28 -3 -34 -10 -23 -7 11 -10 5 -10 -22 0 -36 1 -37 31 -31 l30 6 -25 -37
c-14 -21 -22 -44 -20 -51 12 -30 93 -36 142 -11 33 17 82 90 82 122 0 10 20
62 45 114 35 73 45 106 45 145 0 64 -33 222 -54 263 -9 18 -14 32 -11 32 11 0
44 -79 50 -123 4 -26 10 -49 14 -52 4 -2 8 -41 10 -87 1 -45 5 -85 7 -88 3 -3
5 29 4 70 -3 96 -2 102 10 95 6 -4 8 -10 6 -14 -3 -3 4 -7 15 -7 10 0 15 4 10
9 -10 10 -2 47 10 47 5 0 9 7 9 15 0 8 -4 15 -10 15 -5 0 -10 5 -10 10 0 6 7
10 15 10 8 0 15 5 15 10 0 6 7 10 15 10 12 0 13 -4 5 -19 -13 -25 -13 -31 1
-31 5 0 7 4 4 10 -3 5 -1 10 6 10 7 0 9 -10 7 -25 -3 -14 -1 -25 3 -25 5 0 9
6 10 13 0 6 4 3 8 -8 5 -11 5 -27 0 -36 -5 -10 -3 -21 3 -27 9 -9 6 -12 -12
-12 -19 0 -22 -2 -10 -9 8 -6 18 -7 22 -5 4 3 8 0 8 -5 0 -6 7 -11 15 -11 8 0
15 -4 15 -10 0 -5 -6 -7 -14 -4 -8 3 -17 1 -21 -5 -3 -7 0 -8 9 -5 9 3 16 1
16 -6 0 -6 5 -8 10 -5 6 3 10 -5 10 -19 0 -13 6 -26 13 -29 6 -2 4 -3 -5 -2
-10 2 -21 -2 -25 -7 -3 -6 -2 -8 3 -5 6 3 16 2 22 -2 10 -6 10 -18 2 -52 -6
-24 -11 -54 -11 -65 1 -20 -6 -22 -52 -15 -5 0 -5 11 -2 24 4 15 3 18 -3 8 -7
-9 -12 -10 -16 -2 -4 6 -13 11 -19 11 -7 0 -6 -4 3 -10 12 -8 11 -10 -7 -10
-16 0 -21 4 -17 15 4 8 2 15 -4 15 -5 0 -10 -16 -10 -36 0 -23 -7 -42 -21 -55
-25 -24 -35 -24 -29 -1 3 12 -2 24 -13 31 -15 9 -19 8 -19 -2 0 -7 6 -19 13
-26 10 -11 8 -12 -10 -6 -18 5 -22 3 -17 -9 3 -9 11 -16 16 -16 6 0 8 -14 3
-36 -4 -21 -2 -40 3 -43 11 -6 15 -25 13 -55 -1 -19 -1 -19 -14 -1 -13 17 -14
17 -20 -4 -3 -14 -1 -21 8 -21 7 0 20 -3 29 -6 11 -4 16 -1 16 11 0 15 1 15
17 0 16 -16 16 -18 0 -27 -9 -5 -17 -14 -17 -19 0 -6 5 -7 10 -4 14 9 12 -4
-3 -20 -11 -11 -16 -10 -25 6 -13 20 -52 26 -52 8 0 -6 7 -9 14 -6 11 4 13 1
9 -11 -3 -9 -3 -14 2 -10 10 10 35 -17 35 -39 0 -15 2 -16 10 -3 8 12 10 10
11 -10 1 -14 2 -37 3 -52 2 -26 2 -26 -27 -11 -16 8 -26 10 -23 4 4 -6 0 -21
-9 -35 -10 -15 -12 -26 -6 -30 6 -4 8 -12 6 -19 -11 -29 -12 -77 -1 -77 6 0 4
-5 -4 -10 -13 -8 -12 -10 3 -10 13 0 18 -7 17 -22 -1 -13 -1 -27 0 -33 6 -20
8 -30 9 -42 0 -6 7 -18 14 -25 6 -7 24 -31 39 -53 15 -22 49 -63 75 -90 106
-112 178 -214 151 -216 -7 0 -3 -5 10 -11 13 -7 21 -17 18 -25 -3 -8 2 -13 13
-13 32 0 50 -11 44 -27 -3 -8 -1 -24 5 -36 6 -12 13 -29 15 -37 4 -9 6 -6 6 8
1 24 6 27 24 12 7 -5 27 -21 45 -36 19 -16 32 -35 32 -49 0 -19 4 -22 22 -17
15 4 19 2 14 -7 -5 -8 1 -21 15 -34 l22 -21 -39 -11 c-33 -9 -40 -9 -46 4 -4
9 -7 12 -8 6 0 -5 -8 5 -17 23 -18 36 -27 34 -29 -7 -1 -19 5 -30 19 -37 11
-5 23 -15 25 -23 3 -8 0 -11 -7 -7 -7 5 -11 -1 -11 -14 0 -12 3 -19 8 -17 4 3
7 -7 8 -22 0 -14 9 -43 18 -63 l17 -36 112 -1 c107 -2 113 -1 114 19 1 11 -4
20 -10 20 -9 0 -9 2 -1 8 6 4 14 14 17 22 3 9 6 6 6 -10 2 -65 -53 -59 562
-60 l557 0 -6 22 c-3 13 -11 29 -19 36 -7 7 -18 32 -24 55 -7 23 -20 51 -30
62 -22 24 -58 104 -59 126 0 9 -7 22 -15 29 -8 7 -15 23 -15 36 0 13 -8 32
-18 42 -11 11 -22 39 -26 63 -4 24 -16 64 -28 88 -11 24 -22 51 -23 60 -1 9
-5 25 -9 36 -29 74 -35 96 -30 110 3 8 3 23 -1 33 -20 45 -22 158 -14 737 3
180 -6 308 -20 313 -9 3 -9 7 -1 17 7 9 8 20 2 32 -6 10 -16 38 -22 63 -7 25
-19 65 -26 89 -8 25 -14 52 -14 62 0 9 -7 23 -16 30 -9 8 -25 33 -35 56 -10
23 -27 51 -38 62 -11 11 -27 34 -36 50 -8 17 -19 31 -24 31 -5 0 -21 18 -36
40 -15 22 -33 40 -41 40 -7 0 -14 4 -16 8 -6 16 -68 53 -78 47 -5 -3 -15 3
-22 14 -9 15 -15 17 -25 9 -10 -8 -12 -7 -8 4 4 10 -1 17 -15 21 -12 3 -24 15
-27 26 -3 11 -9 19 -13 16 -22 -14 -70 42 -70 82 0 8 -13 13 -37 14 -21 1 -30
3 -21 6 15 4 13 8 -12 30 -17 13 -30 32 -30 41 0 10 -9 32 -20 50 -11 18 -20
37 -20 43 0 6 -11 20 -25 31 -14 11 -25 28 -25 38 0 10 -13 28 -28 39 -34 24
-63 122 -78 266 -5 46 -15 73 -45 119 -22 32 -39 63 -39 70 -1 19 -37 56 -55
56 -12 0 -15 6 -10 19 4 13 0 21 -12 25 -10 3 -26 19 -35 34 -34 57 -103 123
-121 116 -12 -4 -16 -2 -12 8 6 14 -31 38 -58 38 -7 0 -19 9 -27 20 -17 24
-26 25 -34 4z m-234 -817 l23 -32 -33 27 c-17 14 -45 29 -62 33 -40 9 -42 15
-18 54 l21 32 23 -41 c13 -23 34 -56 46 -73z m-117 -77 c4 -6 1 -10 -4 -10 -6
0 -11 -4 -11 -9 0 -5 8 -8 18 -7 14 1 18 -9 22 -54 6 -66 14 -80 44 -80 43 0
87 -12 83 -23 -2 -6 -26 -23 -54 -37 -28 -15 -59 -34 -68 -43 -22 -23 -67 -21
-88 3 -9 11 -17 24 -17 29 0 4 -15 41 -34 82 -43 94 -52 135 -35 165 7 13 17
24 23 24 6 0 5 -5 -2 -12 -25 -25 -10 -28 25 -4 l36 25 28 -20 c16 -11 31 -24
34 -29z m-185 -12 c0 -23 -9 -22 -40 2 l-25 20 33 -2 c23 -2 32 -7 32 -20z
m390 -74 c0 -16 -2 -16 -14 -4 -8 8 -18 29 -22 45 l-7 30 22 -27 c11 -14 21
-34 21 -44z m-490 -19 c-7 -8 -18 -15 -24 -15 -6 0 -2 7 8 15 25 19 32 19 16
0z m130 -7 c0 -7 15 -50 34 -95 18 -46 29 -83 25 -83 -5 0 -9 -26 -10 -57 l-1
-58 -14 33 c-8 18 -12 37 -9 42 3 5 1 11 -5 15 -6 4 -8 11 -5 16 4 5 -1 16 -9
25 -18 18 -21 34 -6 34 6 0 10 -5 10 -12 0 -6 2 -9 5 -6 11 10 -8 39 -22 34
-8 -3 -11 -1 -8 4 3 5 1 19 -5 31 -13 23 -5 89 10 89 6 0 10 -6 10 -12z m87
-260 c-3 -8 -6 -5 -6 6 -1 11 2 17 5 13 3 -3 4 -12 1 -19z m46 -38 c7 -6 20
-16 30 -23 14 -10 20 -28 22 -66 1 -28 0 -49 -3 -46 -3 3 -13 -2 -22 -10 -16
-15 -18 -14 -25 12 -3 15 -11 33 -17 40 -11 14 -32 7 -23 -8 4 -5 2 -9 -3 -9
-5 0 -12 11 -14 25 -3 16 -1 25 7 25 7 0 16 16 19 35 7 38 10 40 29 25z m47
-160 c0 -5 -4 -10 -10 -10 -5 0 -10 5 -10 10 0 6 5 10 10 10 6 0 10 -4 10 -10z
m-125 -194 c8 -27 13 -52 10 -54 -6 -6 -42 74 -50 113 -6 29 -6 29 10 10 8
-11 22 -42 30 -69z m295 -62 c0 -8 -4 -12 -10 -9 -5 3 -10 10 -10 16 0 5 5 9
10 9 6 0 10 -7 10 -16z m-372 -107 c2 -12 -1 -15 -12 -11 -19 7 -22 38 -3 32
6 -3 13 -12 15 -21z m422 -307 c0 -5 -8 -10 -17 -10 -15 0 -16 2 -3 10 19 12
20 12 20 0z m-25 -70 c-4 -17 -9 -29 -12 -26 -3 2 -2 19 2 36 4 17 9 29 12 26
3 -2 2 -19 -2 -36z m125 30 c0 -5 -2 -10 -4 -10 -3 0 -8 5 -11 10 -3 6 -1 10
4 10 6 0 11 -4 11 -10z m-142 -105 l0 -30 -8 30 c-8 30 -14 18 -10 -20 1 -18
0 -18 -14 -5 -14 14 -14 19 2 51 13 28 19 33 24 20 4 -9 6 -29 6 -46z m-61 13
c-3 -8 -6 -5 -6 6 -1 11 2 17 5 13 3 -3 4 -12 1 -19z m678 -927 c-16 -16 -32
-27 -34 -25 -6 5 42 52 54 53 6 1 -3 -12 -20 -28z m55 -5 c0 -3 -7 -11 -15
-20 -13 -13 -13 -16 1 -31 13 -12 14 -19 5 -28 -8 -8 -11 -7 -11 5 0 9 -6 18
-12 20 -10 4 -10 10 -1 31 10 22 33 38 33 23z m-160 -51 c0 -8 0 -17 0 -20 0
-16 -14 -6 -16 13 -2 12 1 22 6 22 6 0 10 -7 10 -15z m205 -51 c-2 -11 -4 -25
-4 -32 -1 -7 -10 -20 -21 -29 -20 -17 -28 -39 -11 -29 5 3 11 -8 13 -24 5 -34
-7 -41 -15 -9 -5 17 -11 19 -40 14 -30 -6 -35 -4 -34 12 2 19 23 37 46 38 17
0 28 25 11 25 -6 0 -8 5 -5 10 3 6 1 10 -6 10 -10 0 -10 3 -1 12 9 9 15 8 26
-7 12 -17 14 -15 21 26 6 37 9 40 16 23 4 -12 6 -30 4 -40z m-235 36 c0 -5 -7
-7 -15 -4 -8 4 -15 8 -15 10 0 2 7 4 15 4 8 0 15 -4 15 -10z m150 -10 c0 -5
-2 -10 -4 -10 -3 0 -8 5 -11 10 -3 6 -1 10 4 10 6 0 11 -4 11 -10z m-8 -35 c0
-5 -5 -11 -11 -13 -6 -2 -11 4 -11 13 0 9 5 15 11 13 6 -2 11 -8 11 -13z
m-212 -55 c0 -5 -4 -10 -10 -10 -5 0 -10 5 -10 10 0 6 5 10 10 10 6 0 10 -4
10 -10z m350 -70 c0 -5 -7 -10 -15 -10 -8 0 -15 5 -15 10 0 6 7 10 15 10 8 0
15 -4 15 -10z m21 -24 c-9 -11 -10 -20 -1 -36 6 -11 8 -25 5 -30 -3 -6 -3 -10
2 -10 10 0 33 -49 33 -71 0 -10 5 -21 10 -24 6 -3 10 2 10 11 0 10 3 15 6 11
3 -3 3 -16 -1 -28 l-8 -23 -23 28 c-13 15 -28 25 -33 22 -14 -9 -34 22 -28 43
3 14 0 17 -14 14 -22 -6 -23 0 -9 28 9 16 7 19 -8 19 -11 0 -25 7 -32 15 -10
13 -9 15 11 16 l24 1 -25 7 c-24 7 -25 7 -3 13 12 3 24 3 28 0 11 -12 47 -8
52 5 3 8 8 12 11 9 3 -3 -1 -12 -7 -20z m-116 -30 c12 -12 12 -15 -2 -21 -10
-3 -14 -3 -10 1 4 4 -1 13 -11 20 -11 9 -13 13 -4 14 7 0 20 -6 27 -14z m69
-104 c3 -5 -1 -9 -9 -9 -8 0 -15 4 -15 9 0 10 17 10 24 0z m-3 -49 c13 -16 12
-17 -3 -4 -10 7 -18 15 -18 17 0 8 8 3 21 -13z m63 -19 c3 -8 2 -12 -4 -9 -6
3 -10 10 -10 16 0 14 7 11 14 -7z"/>
<path d="M16151 146 c2 -2 14 -9 26 -15 19 -10 22 -9 17 4 -4 8 -15 15 -27 15
-11 0 -18 -2 -16 -4z"/>
<path d="M14050 3710 c0 -5 7 -10 15 -10 8 0 15 5 15 10 0 6 -7 10 -15 10 -8
0 -15 -4 -15 -10z"/>
<path d="M13930 3672 c0 -6 -7 -9 -16 -5 -11 4 -15 2 -12 -7 7 -21 25 -23 32
-4 4 9 4 19 1 22 -3 3 -5 0 -5 -6z"/>
<path d="M14586 3605 c4 -8 10 -15 15 -15 5 0 9 7 9 15 0 8 -7 15 -15 15 -9 0
-12 -6 -9 -15z"/>
<path d="M15230 3610 c0 -5 5 -10 11 -10 5 0 7 5 4 10 -3 6 -8 10 -11 10 -2 0
-4 -4 -4 -10z"/>
<path d="M14764 3594 c3 -9 6 -20 6 -26 0 -19 23 -2 27 20 2 17 -2 22 -18 22
-15 0 -19 -4 -15 -16z"/>
<path d="M15000 3590 c0 -5 5 -10 10 -10 6 0 10 5 10 10 0 6 -4 10 -10 10 -5
0 -10 -4 -10 -10z"/>
<path d="M13910 3568 c0 -19 2 -20 10 -8 13 19 13 30 0 30 -5 0 -10 -10 -10
-22z"/>
<path d="M13950 3570 c0 -5 5 -10 10 -10 6 0 10 5 10 10 0 6 -4 10 -10 10 -5
0 -10 -4 -10 -10z"/>
<path d="M14714 3555 c3 -9 6 -19 6 -21 0 -2 7 -4 16 -4 22 0 13 34 -10 38
-14 3 -17 0 -12 -13z"/>
<path d="M6918 3479 c-15 -8 -18 -24 -18 -85 0 -68 2 -75 23 -83 32 -11 278
-3 294 11 8 6 13 34 13 74 0 92 -4 94 -163 94 -73 0 -140 -5 -149 -11z"/>
<path d="M7288 3479 c-14 -8 -18 -24 -18 -74 0 -100 -9 -95 159 -95 101 0 151
4 159 12 7 7 12 40 12 80 0 56 -3 69 -19 78 -25 13 -270 13 -293 -1z"/>
<path d="M7651 3476 c-7 -9 -11 -42 -9 -88 l3 -73 149 -3 c101 -2 153 1 162 9
9 8 14 34 14 80 0 57 -3 70 -19 79 -31 16 -286 13 -300 -4z"/>
<path d="M8022 3478 c-12 -12 -17 -124 -6 -152 5 -14 28 -16 153 -16 101 0
151 4 159 12 7 7 12 40 12 78 0 38 -5 71 -12 78 -8 8 -57 12 -153 12 -96 0
-145 -4 -153 -12z"/>
<path d="M8392 3478 c-7 -7 -12 -40 -12 -78 0 -38 5 -71 12 -78 17 -17 289
-17 306 0 7 7 12 40 12 78 0 38 -5 71 -12 78 -8 8 -57 12 -153 12 -96 0 -145
-4 -153 -12z"/>
<path d="M8762 3478 c-7 -7 -12 -40 -12 -78 0 -38 5 -71 12 -78 17 -17 289
-17 306 0 7 7 12 40 12 78 0 38 -5 71 -12 78 -8 8 -57 12 -153 12 -96 0 -145
-4 -153 -12z"/>
<path d="M9132 3478 c-7 -7 -12 -40 -12 -78 0 -38 5 -71 12 -78 17 -17 289
-17 306 0 7 7 12 40 12 78 0 38 -5 71 -12 78 -8 8 -57 12 -153 12 -96 0 -145
-4 -153 -12z"/>
<path d="M9502 3478 c-7 -7 -12 -40 -12 -78 0 -38 5 -71 12 -78 17 -17 289
-17 306 0 7 7 12 40 12 78 0 38 -5 71 -12 78 -8 8 -57 12 -153 12 -96 0 -145
-4 -153 -12z m148 -74 c0 -8 -5 -12 -10 -9 -6 4 -8 11 -5 16 9 14 15 11 15 -7z
m37 1 c0 -17 -13 -20 -21 -6 -4 5 0 12 6 14 7 3 13 6 14 6 0 1 1 -6 1 -14z"/>
<path d="M9872 3478 c-15 -15 -16 -122 -2 -149 10 -17 22 -19 153 -19 78 0
148 4 156 9 19 12 27 121 12 150 -11 20 -19 21 -159 21 -102 0 -152 -4 -160
-12z m142 -79 c-8 -14 -24 -10 -24 6 0 9 6 12 15 9 8 -4 12 -10 9 -15z"/>
<path d="M10242 3478 c-15 -15 -16 -122 -2 -149 10 -17 23 -19 160 -19 171 0
170 -1 170 90 0 91 1 90 -168 90 -102 0 -152 -4 -160 -12z m148 -72 c0 -3 -4
-8 -10 -11 -5 -3 -10 -1 -10 4 0 6 5 11 10 11 6 0 10 -2 10 -4z m30 -6 c0 -5
-4 -10 -10 -10 -5 0 -10 5 -10 10 0 6 5 10 10 10 6 0 10 -4 10 -10z"/>
<path d="M10610 3471 c-5 -11 -10 -43 -10 -71 0 -91 -1 -90 170 -90 171 0 170
-1 170 90 0 91 1 90 -170 90 -137 0 -150 -2 -160 -19z m170 -67 c0 -8 -5 -12
-10 -9 -6 4 -8 11 -5 16 9 14 15 11 15 -7z"/>
<path d="M10987 3483 c-12 -12 -8 -148 5 -161 17 -17 289 -17 306 0 7 7 12 40
12 78 0 38 -5 71 -12 78 -13 13 -299 18 -311 5z m153 -83 c0 -5 -2 -10 -4 -10
-3 0 -8 5 -11 10 -3 6 -1 10 4 10 6 0 11 -4 11 -10z"/>
<path d="M11355 3473 c-14 -13 -15 -27 -10 -77 4 -34 12 -67 17 -73 8 -9 51
-13 154 -13 131 0 144 2 154 19 14 27 13 134 -2 149 -8 8 -57 12 -154 12 -119
0 -145 -3 -159 -17z m135 -73 c0 -5 -2 -10 -4 -10 -3 0 -8 5 -11 10 -3 6 -1
10 4 10 6 0 11 -4 11 -10z"/>
<path d="M11733 3483 c-17 -6 -18 -144 -1 -161 17 -17 289 -17 306 0 7 7 12
40 12 78 0 38 -5 71 -12 78 -12 12 -278 17 -305 5z m124 -85 c-3 -8 -6 -5 -6
6 -1 11 2 17 5 13 3 -3 4 -12 1 -19z"/>
<path d="M14616 3481 c-4 -5 -2 -12 3 -15 5 -4 12 -2 15 3 4 5 2 12 -3 15 -5
4 -12 2 -15 -3z"/>
<path d="M15070 3480 c0 -5 5 -10 10 -10 6 0 10 5 10 10 0 6 -4 10 -10 10 -5
0 -10 -4 -10 -10z"/>
<path d="M14360 3459 c0 -5 5 -7 10 -4 6 3 10 8 10 11 0 2 -4 4 -10 4 -5 0
-10 -5 -10 -11z"/>
<path d="M14860 3350 c0 -5 5 -10 10 -10 6 0 10 5 10 10 0 6 -4 10 -10 10 -5
0 -10 -4 -10 -10z"/>
<path d="M14520 3339 c0 -5 5 -7 10 -4 6 3 10 8 10 11 0 2 -4 4 -10 4 -5 0
-10 -5 -10 -11z"/>
<path d="M14470 3320 c0 -5 5 -10 10 -10 6 0 10 5 10 10 0 6 -4 10 -10 10 -5
0 -10 -4 -10 -10z"/>
<path d="M15045 3310 c3 -5 8 -10 11 -10 2 0 4 5 4 10 0 6 -5 10 -11 10 -5 0
-7 -4 -4 -10z"/>
<path d="M15230 3310 c0 -5 5 -10 10 -10 6 0 10 5 10 10 0 6 -4 10 -10 10 -5
0 -10 -4 -10 -10z"/>
<path d="M14035 3280 c-3 -5 1 -10 9 -10 9 0 16 5 16 10 0 6 -4 10 -9 10 -6 0
-13 -4 -16 -10z"/>
<path d="M14245 3281 c-7 -12 12 -24 25 -16 11 7 4 25 -10 25 -5 0 -11 -4 -15
-9z"/>
<path d="M14980 3270 c0 -5 5 -10 11 -10 5 0 7 5 4 10 -3 6 -8 10 -11 10 -2 0
-4 -4 -4 -10z"/>
<path d="M7655 3263 c-42 -11 -45 -21 -45 -152 0 -85 4 -131 12 -139 17 -17
279 -17 296 0 8 8 12 55 12 145 l0 133 -26 10 c-25 10 -212 12 -249 3z"/>
<path d="M7988 3260 c-16 -10 -18 -28 -18 -143 0 -90 4 -137 12 -145 8 -8 56
-12 150 -12 126 0 138 2 148 19 13 25 13 251 0 271 -7 12 -37 16 -142 18 -81
1 -140 -2 -150 -8z m146 -68 c3 -5 -1 -9 -9 -9 -8 0 -12 4 -9 9 3 4 7 8 9 8 2
0 6 -4 9 -8z m88 -17 c4 18 5 18 4 1 -1 -11 -8 -20 -17 -21 -12 -2 -15 3 -11
24 l6 26 6 -25 c6 -23 7 -23 12 -5z m-73 -140 c0 -5 -4 -3 -9 5 -5 8 -9 22 -9
30 0 16 17 -16 18 -35z"/>
<path d="M8348 3259 c-16 -9 -18 -27 -18 -142 0 -90 4 -137 12 -145 8 -8 55
-12 143 -12 170 0 165 -5 165 157 0 157 4 153 -161 153 -68 0 -132 -5 -141
-11z"/>
<path d="M8702 3254 c-21 -14 -22 -22 -22 -139 0 -99 3 -127 16 -139 12 -13
41 -16 148 -16 89 0 136 4 144 12 8 8 12 55 12 145 0 121 -2 133 -19 143 -11
5 -73 10 -138 10 -91 0 -124 -4 -141 -16z m155 -216 c-3 -8 -6 -5 -6 6 -1 11
2 17 5 13 3 -3 4 -12 1 -19z"/>
<path d="M9056 3254 c-23 -23 -23 -255 0 -278 12 -13 41 -16 148 -16 89 0 136
4 144 12 8 8 12 54 12 143 0 89 -4 135 -12 143 -8 8 -55 12 -144 12 -107 0
-136 -3 -148 -16z m135 -201 c-12 -20 -14 -14 -5 12 4 9 9 14 11 11 3 -2 0
-13 -6 -23z"/>
<path d="M9418 3259 c-16 -9 -18 -27 -18 -142 0 -90 4 -137 12 -145 17 -17
279 -17 296 0 8 8 12 55 12 145 0 121 -2 133 -19 143 -25 13 -260 13 -283 -1z"/>
<path d="M9772 3258 c-8 -8 -12 -54 -12 -143 0 -89 4 -135 12 -143 17 -17 279
-17 296 0 8 8 12 55 12 145 0 121 -2 133 -19 143 -28 15 -274 13 -289 -2z
m145 -90 c-3 -7 -5 -2 -5 12 0 14 2 19 5 13 2 -7 2 -19 0 -25z m20 -115 c1
-24 0 -25 -6 -8 -7 17 -6 35 2 35 2 0 3 -12 4 -27z m-30 -15 c-3 -8 -6 -5 -6
6 -1 11 2 17 5 13 3 -3 4 -12 1 -19z"/>
<path d="M10132 3258 c-8 -8 -12 -54 -12 -143 0 -89 4 -135 12 -143 17 -17
279 -17 296 0 8 8 12 55 12 145 0 121 -2 133 -19 143 -28 15 -274 13 -289 -2z"/>
<path d="M10490 3255 c-15 -19 -14 -263 2 -282 17 -21 271 -18 292 3 13 12 16
40 16 139 0 99 -3 127 -16 139 -22 23 -275 23 -294 1z"/>
<path d="M10852 3258 c-17 -17 -17 -269 0 -286 8 -8 55 -12 144 -12 174 0 167
-7 162 162 -2 101 -6 131 -18 138 -23 15 -273 13 -288 -2z m153 -187 c3 -5 1
-12 -5 -16 -5 -3 -10 1 -10 9 0 18 6 21 15 7z"/>
<path d="M11206 3254 c-13 -12 -16 -40 -16 -138 0 -161 -5 -156 166 -156 88 0
134 4 142 12 8 8 12 54 12 143 0 89 -4 135 -12 143 -8 8 -55 12 -144 12 -107
0 -136 -3 -148 -16z"/>
<path d="M11568 3259 c-16 -9 -18 -27 -18 -139 0 -104 3 -132 16 -144 13 -14
49 -16 238 -16 159 0 225 3 234 12 8 8 12 55 12 145 0 121 -2 133 -19 143 -26
13 -440 13 -463 -1z"/>
<path d="M6907 3253 c-4 -3 -7 -68 -7 -144 0 -116 2 -138 16 -143 32 -12 271
-7 281 7 15 18 25 230 13 261 l-10 26 -143 0 c-79 0 -147 -3 -150 -7z"/>
<path d="M7266 3252 c-8 -13 -10 -268 -2 -281 11 -17 280 -15 295 3 8 9 11 57
9 147 l-3 134 -147 3 c-80 1 -149 -1 -152 -6z"/>
<path d="M14710 3250 c0 -5 5 -10 10 -10 6 0 10 5 10 10 0 6 -4 10 -10 10 -5
0 -10 -4 -10 -10z"/>
<path d="M14150 3160 c0 -5 5 -10 11 -10 5 0 7 5 4 10 -3 6 -8 10 -11 10 -2 0
-4 -4 -4 -10z"/>
<path d="M14376 3121 c-4 -5 -2 -12 3 -15 5 -4 12 -2 15 3 4 5 2 12 -3 15 -5
4 -12 2 -15 -3z"/>
<path d="M14240 3110 c0 -5 5 -10 10 -10 6 0 10 5 10 10 0 6 -4 10 -10 10 -5
0 -10 -4 -10 -10z"/>
<path d="M14545 2980 c-3 -5 -1 -10 4 -10 6 0 11 5 11 10 0 6 -2 10 -4 10 -3
0 -8 -4 -11 -10z"/>
<path d="M6914 2906 c-17 -13 -19 -30 -22 -138 -3 -106 -1 -127 13 -141 14
-15 44 -17 239 -17 159 0 225 3 234 12 8 8 12 55 12 145 0 121 -2 133 -19 143
-12 6 -104 10 -228 10 -165 0 -213 -3 -229 -14z"/>
<path d="M7446 2904 c-13 -12 -16 -40 -16 -135 0 -66 5 -129 10 -140 10 -17
22 -19 148 -19 94 0 142 4 150 12 8 8 12 55 12 145 0 121 -2 133 -19 143 -11
5 -76 10 -145 10 -100 0 -128 -3 -140 -16z m164 -166 c0 -5 -9 -8 -19 -8 -11
0 -22 3 -24 8 -3 4 6 7 19 7 13 0 24 -3 24 -7z"/>
<path d="M7808 2909 c-16 -9 -18 -27 -18 -142 0 -90 4 -137 12 -145 8 -8 55
-12 144 -12 107 0 136 3 148 16 13 12 16 40 16 139 0 99 -3 127 -16 139 -12
13 -40 16 -142 16 -70 0 -135 -5 -144 -11z m168 -176 c-11 -11 -17 4 -9 23 7
18 8 18 11 1 2 -10 1 -21 -2 -24z"/>
<path d="M8162 2908 c-8 -8 -12 -54 -12 -143 0 -89 4 -135 12 -143 8 -8 55
-12 143 -12 170 0 165 -5 165 158 0 96 -3 124 -16 136 -12 13 -41 16 -148 16
-89 0 -136 -4 -144 -12z m143 -138 c3 -5 1 -10 -4 -10 -6 0 -11 5 -11 10 0 6
2 10 4 10 3 0 8 -4 11 -10z m12 -36 c-3 -3 -12 -4 -19 -1 -8 3 -5 6 6 6 11 1
17 -2 13 -5z"/>
<path d="M8516 2898 c-12 -17 -16 -50 -16 -139 0 -153 -5 -149 167 -149 93 0
134 4 141 13 17 20 19 261 3 281 -11 13 -37 16 -147 16 -126 0 -134 -1 -148
-22z m157 -142 c4 -10 1 -13 -9 -9 -7 3 -14 9 -14 14 0 14 17 10 23 -5z"/>
<path d="M8876 2904 c-23 -23 -23 -255 0 -278 12 -13 41 -16 148 -16 89 0 136
4 144 12 8 8 12 54 12 143 0 89 -4 135 -12 143 -8 8 -55 12 -144 12 -107 0
-136 -3 -148 -16z"/>
<path d="M9236 2904 c-23 -23 -23 -255 0 -278 12 -13 41 -16 148 -16 89 0 136
4 144 12 8 8 12 54 12 143 0 89 -4 135 -12 143 -8 8 -55 12 -144 12 -107 0
-136 -3 -148 -16z"/>
<path d="M9592 2908 c-8 -8 -12 -55 -12 -145 0 -121 2 -133 19 -143 11 -5 78
-10 150 -10 119 0 131 2 141 19 15 28 13 264 -2 279 -17 17 -279 17 -296 0z
m125 -155 c-3 -10 -5 -2 -5 17 0 19 2 27 5 18 2 -10 2 -26 0 -35z m50 10 c-3
-10 -5 -4 -5 12 0 17 2 24 5 18 2 -7 2 -21 0 -30z"/>
<path d="M9952 2908 c-8 -8 -12 -55 -12 -145 0 -121 2 -133 19 -143 28 -15
274 -13 289 2 8 8 12 54 12 143 0 89 -4 135 -12 143 -17 17 -279 17 -296 0z"/>
<path d="M10312 2908 c-8 -8 -12 -55 -12 -145 0 -121 2 -133 19 -143 11 -5 76
-10 145 -10 100 0 128 3 140 16 13 12 16 40 16 143 0 85 -4 131 -12 139 -17
17 -279 17 -296 0z"/>
<path d="M10672 2908 c-17 -17 -17 -269 0 -286 8 -8 55 -12 144 -12 107 0 136
3 148 16 13 12 16 40 16 139 0 99 -3 127 -16 139 -12 13 -41 16 -148 16 -89 0
-136 -4 -144 -12z m163 -123 c0 -12 -7 -20 -18 -21 -12 -1 -13 -1 -2 3 21 6
19 30 -2 37 -14 4 -14 4 2 3 13 -2 20 -10 20 -22z"/>
<path d="M11032 2908 c-17 -17 -17 -269 0 -286 8 -8 55 -12 144 -12 107 0 136
3 148 16 13 12 16 40 16 139 0 99 -3 127 -16 139 -12 13 -41 16 -148 16 -89 0
-136 -4 -144 -12z"/>
<path d="M11386 2904 c-13 -12 -16 -39 -16 -132 0 -166 -4 -162 164 -162 89 0
136 4 144 12 8 8 12 54 12 143 0 89 -4 135 -12 143 -8 8 -55 12 -144 12 -107
0 -136 -3 -148 -16z m167 -166 c-2 -5 -10 -8 -18 -8 -8 0 -16 3 -18 8 -3 4 5
7 18 7 13 0 21 -3 18 -7z"/>
<path d="M11746 2904 c-13 -12 -16 -39 -16 -132 0 -134 10 -162 61 -162 l29 0
0 -158 c0 -196 -2 -192 123 -192 125 0 118 -21 110 339 -3 169 -10 301 -16
309 -7 8 -48 12 -143 12 -107 0 -136 -3 -148 -16z"/>
<path d="M6906 2554 c-23 -23 -23 -255 0 -278 13 -14 53 -16 283 -16 194 0
270 3 279 12 8 8 12 55 12 145 0 121 -2 133 -19 143 -12 6 -120 10 -280 10
-223 0 -262 -2 -275 -16z"/>
<path d="M7538 2559 c-16 -9 -18 -27 -18 -142 0 -90 4 -137 12 -145 8 -8 55
-12 144 -12 107 0 136 3 148 16 13 12 16 40 16 139 0 99 -3 127 -16 139 -12
13 -40 16 -142 16 -70 0 -135 -5 -144 -11z"/>
<path d="M7892 2558 c-8 -8 -12 -54 -12 -143 0 -89 4 -135 12 -143 8 -8 55
-12 143 -12 170 0 165 -5 165 158 0 96 -3 124 -16 136 -12 13 -41 16 -148 16
-89 0 -136 -4 -144 -12z m136 -117 c-2 -5 6 -17 17 -26 11 -9 13 -13 5 -9 -27
13 -40 26 -34 35 7 12 15 12 12 0z"/>
<path d="M8252 2558 c-8 -8 -12 -54 -12 -143 0 -89 4 -135 12 -143 8 -8 55
-12 144 -12 168 0 164 -4 164 162 0 93 -3 120 -16 132 -12 13 -41 16 -148 16
-89 0 -136 -4 -144 -12z"/>
<path d="M8606 2554 c-13 -12 -16 -40 -16 -138 0 -161 -5 -156 166 -156 88 0
134 4 142 12 8 8 12 54 12 143 0 89 -4 135 -12 143 -8 8 -55 12 -144 12 -107
0 -136 -3 -148 -16z"/>
<path d="M8966 2554 c-23 -23 -23 -255 0 -278 12 -13 41 -16 148 -16 89 0 136
4 144 12 8 8 12 54 12 143 0 89 -4 135 -12 143 -8 8 -55 12 -144 12 -107 0
-136 -3 -148 -16z m126 -131 c-3 -16 -7 -22 -10 -15 -4 13 4 42 11 42 2 0 2
-12 -1 -27z"/>
<path d="M9326 2554 c-23 -23 -23 -255 0 -278 12 -13 41 -16 148 -16 89 0 136
4 144 12 8 8 12 54 12 143 0 89 -4 135 -12 143 -8 8 -55 12 -144 12 -107 0
-136 -3 -148 -16z"/>
<path d="M9682 2558 c-8 -8 -12 -54 -12 -143 0 -89 4 -135 12 -143 17 -17 279
-17 296 0 8 8 12 54 12 143 0 89 -4 135 -12 143 -8 8 -56 12 -148 12 -92 0
-140 -4 -148 -12z m155 -155 c-3 -10 -5 -2 -5 17 0 19 2 27 5 18 2 -10 2 -26
0 -35z"/>
<path d="M10042 2558 c-15 -15 -17 -251 -2 -279 10 -17 22 -19 148 -19 94 0
142 4 150 12 8 8 12 54 12 143 0 89 -4 135 -12 143 -8 8 -56 12 -148 12 -92 0
-140 -4 -148 -12z"/>
<path d="M10402 2558 c-17 -17 -17 -269 0 -286 8 -8 56 -12 150 -12 126 0 138
2 148 19 15 28 13 264 -2 279 -8 8 -56 12 -148 12 -92 0 -140 -4 -148 -12z"/>
<path d="M10762 2558 c-17 -17 -17 -269 0 -286 8 -8 55 -12 144 -12 107 0 136
3 148 16 13 12 16 40 16 144 0 118 -2 130 -19 140 -28 15 -274 13 -289 -2z
m135 -130 c-3 -8 -6 -5 -6 6 -1 11 2 17 5 13 3 -3 4 -12 1 -19z m33 -23 c0 -8
-2 -15 -4 -15 -2 0 -6 7 -10 15 -3 8 -1 15 4 15 6 0 10 -7 10 -15z"/>
<path d="M11123 2563 c-18 -7 -18 -274 -1 -291 8 -8 55 -12 144 -12 107 0 136
3 148 16 13 12 16 40 16 139 0 99 -3 127 -16 139 -12 13 -40 16 -147 15 -73 0
-138 -3 -144 -6z"/>
<path d="M11476 2554 c-13 -12 -16 -39 -16 -132 0 -166 -4 -162 164 -162 89 0
136 4 144 12 8 8 12 56 12 149 0 116 -2 138 -16 143 -9 3 -73 6 -144 6 -104 0
-132 -3 -144 -16z"/>
<path d="M2289 2383 c-5 -15 -9 -47 -7 -72 3 -44 4 -46 36 -49 41 -4 79 19 88
53 8 34 24 32 24 -2 0 -68 -6 -73 -81 -73 l-68 0 -3 -52 -3 -53 -138 -3 c-104
-2 -137 -6 -134 -15 2 -8 46 -14 143 -17 l139 -5 -138 -6 c-76 -4 -141 -10
-145 -13 -15 -15 27 -26 104 -26 45 0 102 -3 128 -6 l46 -7 0 -63 0 -64 -31 0
c-38 0 -35 -24 4 -28 32 -4 37 -22 6 -22 -15 0 -19 -4 -15 -16 3 -9 6 -18 6
-20 0 -2 7 -4 15 -4 9 0 15 -9 15 -23 0 -13 5 -28 12 -35 9 -9 9 -12 0 -12 -7
0 -12 -13 -12 -30 l0 -30 -84 0 c-46 0 -104 -3 -130 -6 -86 -12 -47 -24 78
-24 69 0 127 -4 130 -8 3 -5 -51 -12 -121 -15 -69 -4 -128 -9 -131 -12 -14
-14 20 -20 131 -25 l122 -5 0 -60 0 -60 -123 -5 c-71 -3 -122 -9 -122 -15 0
-6 46 -13 107 -16 60 -4 116 -7 126 -8 11 0 15 -6 11 -12 -4 -7 -46 -10 -125
-8 -156 5 -157 -12 -2 -27 65 -7 121 -12 126 -13 4 -1 7 -30 7 -66 l0 -65
-126 0 c-96 0 -125 -3 -122 -12 3 -9 40 -14 126 -16 114 -2 149 -12 102 -27
-11 -3 -65 -5 -121 -3 -75 2 -103 0 -106 -9 -4 -10 16 -13 75 -13 43 0 100 -3
126 -6 l46 -7 0 -68 0 -69 -126 0 c-81 0 -123 -4 -119 -10 3 -5 46 -10 94 -10
108 0 151 -8 151 -27 0 -12 -19 -13 -125 -7 -81 4 -125 3 -125 -3 0 -13 72
-23 156 -23 92 0 94 -2 94 -76 l0 -64 -94 0 c-103 0 -159 -8 -150 -21 3 -5 38
-9 78 -9 92 0 166 -10 166 -22 0 -6 -46 -9 -107 -8 -139 2 -143 2 -143 -10 0
-5 26 -10 58 -10 31 0 88 -3 125 -7 l68 -6 -3 -66 -3 -66 -115 -3 c-63 -1
-121 -5 -129 -7 -31 -12 5 -19 122 -24 76 -4 120 -10 117 -16 -3 -6 -52 -9
-129 -6 -102 3 -123 1 -119 -10 2 -8 15 -15 29 -16 13 -1 68 -5 122 -8 l97 -7
0 -63 0 -63 -119 -4 c-113 -3 -143 -9 -127 -25 3 -4 60 -9 126 -11 66 -3 120
-8 120 -13 0 -5 -58 -9 -130 -9 -71 0 -130 -4 -130 -9 0 -14 55 -21 160 -21
l98 0 6 -36 c4 -20 4 -49 1 -65 l-7 -29 -129 0 c-71 0 -129 -4 -129 -9 0 -15
40 -21 140 -21 86 0 133 -10 119 -24 -3 -3 -57 -2 -120 3 -108 8 -166 3 -141
-13 6 -3 66 -11 133 -16 93 -7 125 -13 131 -24 8 -14 140 -16 1253 -16 l1245
0 0 174 c0 96 -3 181 -6 190 -6 14 -82 16 -760 16 l-754 0 0 270 0 270 750 0
750 0 0 205 0 205 -43 0 c-40 0 -43 2 -42 27 0 14 -6 28 -14 31 -10 3 -13 -3
-9 -27 3 -23 1 -31 -11 -31 -12 0 -16 9 -15 32 l1 33 62 1 c34 1 64 3 66 6 3
2 2 82 -2 176 l-6 172 -36 0 c-33 0 -39 5 -75 60 -21 33 -42 63 -47 66 -5 3
-9 -20 -9 -51 0 -48 3 -57 23 -65 16 -6 -2 -9 -63 -9 -61 0 -79 3 -62 9 21 9
22 14 22 135 0 121 -1 126 -22 135 -16 6 12 9 90 9 112 1 114 1 143 -28 33
-33 32 -35 30 74 -3 123 -8 143 -40 147 -21 2 -27 9 -29 33 -4 28 -16 44 -34
45 -13 0 -9 -45 4 -58 9 -9 -1 -12 -46 -12 -50 0 -57 2 -47 14 14 17 11 68 -4
64 -5 -2 -15 15 -21 37 l-12 40 -1 -65 c-1 -39 4 -71 11 -78 9 -9 -1 -12 -48
-11 -32 0 -53 3 -46 6 8 3 12 29 12 80 0 71 -1 74 -22 71 -21 -3 -23 -9 -26
-66 -2 -38 2 -69 9 -78 10 -12 3 -14 -42 -14 -41 0 -50 3 -41 12 7 7 12 40 12
80 l0 68 -85 0 -85 0 0 -70 c0 -45 4 -70 11 -70 8 0 8 -5 -1 -15 -14 -16 -65
-20 -74 -6 -4 5 -19 4 -36 -2 -40 -15 -65 0 -65 39 0 22 10 36 45 62 25 19 46
41 48 48 5 19 -24 18 -32 -1 -7 -18 -53 -20 -58 -2 -6 15 -100 18 -110 3 -4
-6 -8 -37 -8 -68 0 -44 4 -59 18 -67 13 -8 1 -10 -48 -10 -36 0 -59 3 -52 6 8
3 12 29 12 79 0 67 -2 74 -20 74 -13 0 -20 -7 -20 -20 0 -17 -7 -20 -50 -20
-54 0 -61 -10 -41 -63 13 -32 39 -41 67 -22 30 20 31 2 2 -25 -17 -15 -33 -20
-62 -18 -55 4 -81 41 -80 114 0 50 -2 54 -23 54 -22 0 -23 -3 -23 -74 0 -50 4
-76 13 -79 6 -3 -40 -5 -103 -5 -63 0 -109 2 -102 5 8 3 12 29 12 79 l0 74
-30 0 -30 0 0 -70 c0 -45 4 -70 11 -70 8 0 8 -5 -1 -15 -14 -17 -51 -20 -66
-5 -6 6 -21 6 -42 -2 -88 -34 -94 67 -7 109 21 10 35 24 35 35 0 22 -26 24
-34 3 -3 -8 -15 -15 -26 -15 -11 0 -23 7 -26 15 -4 8 -18 15 -33 15 l-27 0 4
-72 c3 -40 9 -76 16 -80 6 -4 -16 -8 -48 -8 -47 0 -57 3 -48 12 7 7 12 40 12
80 0 66 -1 68 -25 68 -24 0 -25 -2 -25 -68 0 -40 5 -73 12 -80 9 -9 -1 -12
-48 -11 -32 0 -53 3 -46 6 8 3 12 29 12 80 0 71 -1 74 -22 71 -21 -3 -23 -9
-26 -66 -2 -38 2 -69 9 -78 10 -12 3 -14 -42 -14 -41 0 -50 3 -41 12 7 7 12
40 12 80 l0 68 -32 1 c-18 1 -57 3 -85 5 l-53 3 0 -74 c0 -49 4 -75 11 -75 8
0 8 -5 -1 -15 -14 -17 -65 -20 -75 -5 -4 6 -15 5 -30 -2 -13 -6 -35 -8 -49 -4
-21 5 -26 13 -26 35 0 33 13 49 65 81 36 23 45 44 21 53 -8 3 -16 -2 -19 -14
-7 -26 -53 -26 -62 1 -6 18 -15 20 -86 20 -77 0 -80 -1 -90 -27z m151 -237 c0
-3 -4 -8 -10 -11 -5 -3 -10 -1 -10 4 0 6 5 11 10 11 6 0 10 -2 10 -4z m145
-230 c30 -70 61 -136 71 -147 17 -19 15 -19 -56 -19 -65 0 -72 2 -55 14 16 12
17 17 6 45 -12 29 -17 31 -61 31 -41 0 -49 -3 -54 -22 -10 -38 -7 -48 17 -58
17 -7 8 -9 -38 -9 -47 0 -56 2 -42 10 24 14 57 87 49 107 -3 9 -1 13 4 9 6 -3
27 35 48 84 21 49 43 88 48 87 6 -2 34 -61 63 -132z m305 109 c77 -40 33 -145
-60 -145 -30 0 -30 -1 -30 -55 0 -48 3 -57 23 -65 16 -6 -2 -9 -63 -9 -61 0
-79 3 -62 9 21 9 22 14 22 135 0 121 -1 126 -22 135 -16 6 4 9 70 9 65 1 102
-4 122 -14z m295 -10 c40 -39 31 -96 -18 -122 -16 -9 -14 -15 27 -71 45 -60
58 -68 90 -56 13 5 16 26 16 129 0 117 -1 122 -22 133 -18 8 4 11 100 11 l122
1 0 -45 c0 -51 -6 -57 -20 -20 -10 27 -45 45 -86 45 -22 0 -24 -3 -24 -55 0
-30 3 -55 8 -55 15 0 31 17 44 45 l12 30 4 -42 c2 -24 2 -62 0 -85 l-4 -43
-12 30 c-13 28 -29 45 -44 45 -11 0 -10 -92 1 -109 16 -25 82 -7 115 31 l28
33 -6 -34 c-3 -18 -6 -40 -6 -47 0 -11 -33 -14 -174 -14 l-175 0 -46 65 c-26
36 -49 65 -51 65 -2 0 -4 -25 -4 -55 0 -48 3 -57 23 -65 16 -6 -2 -9 -63 -9
-61 0 -79 3 -62 9 21 9 22 14 22 135 0 121 -1 126 -22 135 -16 6 12 9 90 9
107 1 114 0 137 -24z m526 -55 c34 -44 63 -80 65 -80 2 0 4 31 4 68 0 62 -2
70 -22 80 -20 9 -15 11 32 11 42 0 51 -2 38 -10 -16 -9 -18 -27 -18 -149 0
-80 -4 -140 -9 -140 -5 0 -49 50 -96 110 -47 61 -88 110 -91 110 -2 0 -4 -42
-4 -93 0 -88 2 -95 23 -105 18 -9 12 -11 -38 -11 -50 0 -56 2 -37 11 21 11 22
16 22 133 0 117 -1 122 -22 133 -20 9 -14 11 34 11 l57 1 62 -80z m370 57 c41
-28 62 -68 63 -122 1 -52 -21 -94 -63 -122 -30 -20 -46 -23 -135 -22 -71 0
-94 3 -78 9 21 9 22 14 22 135 0 121 -1 126 -22 135 -16 6 7 9 78 9 89 1 105
-2 135 -22z m329 -22 c0 -51 -6 -57 -20 -20 -10 27 -45 45 -86 45 -22 0 -24
-3 -24 -55 0 -30 3 -55 8 -55 15 0 31 17 44 45 l12 30 4 -42 c2 -24 2 -62 0
-85 l-4 -43 -12 30 c-13 28 -29 45 -44 45 -11 0 -10 -92 1 -109 16 -25 82 -7
115 31 l28 33 -6 -34 c-3 -18 -6 -40 -6 -47 0 -11 -26 -14 -127 -13 -100 0
-123 3 -105 11 21 11 22 16 22 133 0 117 -1 122 -22 133 -18 8 4 11 100 11
l122 1 0 -45z m-1160 -605 c0 -29 5 -50 11 -50 6 0 9 12 7 27 -2 15 2 28 10
30 8 3 12 -5 12 -24 0 -22 5 -29 20 -29 24 0 25 5 3 21 -21 15 -9 35 22 35 13
0 27 5 31 11 5 8 9 7 14 -1 5 -7 23 -13 40 -14 40 -1 60 -27 41 -50 -9 -11
-26 -15 -55 -13 -34 3 -42 7 -46 28 -3 13 -13 25 -22 25 -22 2 -24 -12 -3 -20
8 -3 15 -12 15 -21 0 -12 -13 -15 -62 -15 l-63 0 2 52 c2 64 1 58 13 58 6 0
10 -22 10 -50z m961 3 c1 -37 3 -42 8 -23 6 22 13 25 61 27 32 1 49 -2 41 -7
-8 -4 -12 -18 -9 -33 l5 -25 -86 2 c-85 1 -86 1 -86 26 0 16 8 28 23 35 12 5
20 15 18 21 -3 7 -2 15 1 18 16 15 23 2 24 -41z m339 36 c0 -6 -7 -9 -15 -5
-9 3 -15 0 -15 -9 0 -8 6 -15 13 -16 6 -1 23 -2 36 -2 32 -3 49 -30 32 -51
-26 -31 -77 -6 -64 32 3 6 -1 12 -7 12 -8 0 -11 -11 -8 -30 l5 -30 -76 0 -76
0 1 32 c1 42 24 50 24 9 0 -17 5 -31 11 -31 6 0 9 12 7 28 -3 24 0 27 27 27
25 0 30 -4 33 -27 5 -42 22 -33 20 10 0 22 2 44 6 50 9 15 46 16 46 1z m-1610
-8 c0 -4 -11 -6 -25 -3 -19 3 -25 0 -25 -13 0 -12 6 -16 20 -12 12 3 20 0 20
-8 0 -8 -8 -11 -20 -8 -15 4 -20 0 -20 -16 0 -24 28 -29 49 -8 11 10 13 9 9
-3 -3 -9 -20 -16 -44 -18 l-39 -3 0 51 0 50 38 0 c20 0 37 -4 37 -9z m101 -13
c1 -7 0 -24 -1 -36 -1 -20 2 -23 20 -17 15 5 20 4 16 -4 -4 -6 -3 -11 2 -11 5
0 10 12 10 26 0 17 -5 24 -14 20 -8 -3 -14 -1 -14 4 0 6 11 10 25 10 20 0 25
-5 25 -24 0 -15 7 -26 20 -29 24 -6 26 2 3 18 -9 7 -13 17 -9 23 9 15 46 16
46 1 0 -6 -7 -9 -15 -5 -8 3 -15 1 -15 -3 0 -5 7 -11 15 -15 8 -3 15 -12 15
-21 0 -13 -13 -15 -75 -14 -75 1 -75 2 -75 29 0 23 -4 28 -25 26 l-25 -1 22
-16 c11 -9 18 -21 14 -28 -9 -13 -46 -15 -46 -1 0 5 8 7 18 4 16 -5 16 -5 0 9
-29 23 -23 47 12 47 17 0 30 5 30 10 0 15 20 12 21 -2z m537 -41 c3 -22 -1
-30 -18 -34 -13 -3 -19 -11 -16 -19 3 -9 -1 -14 -12 -14 -14 0 -17 9 -15 47 1
27 2 49 2 51 1 2 13 2 29 0 21 -2 28 -9 30 -31z m62 8 c0 -14 5 -25 11 -25 5
0 9 10 7 23 -2 17 2 23 22 25 18 2 21 0 11 -7 -8 -5 -12 -19 -9 -35 5 -25 4
-26 -43 -26 -35 0 -49 4 -49 14 0 8 7 16 15 20 8 3 15 10 15 15 0 6 -7 8 -15
5 -8 -4 -15 -1 -15 5 0 6 11 11 25 11 20 0 25 -5 25 -25z m120 6 c0 -11 3 -27
6 -36 6 -14 1 -16 -27 -13 -33 3 -43 18 -18 27 7 2 9 -1 5 -8 -4 -6 -3 -11 2
-11 5 0 10 12 10 26 0 17 -5 24 -14 20 -8 -3 -14 -1 -14 4 0 6 11 10 25 10 18
0 25 -5 25 -19z m100 -6 c0 -14 5 -25 11 -25 5 0 9 10 7 23 -3 22 -2 22 124
24 l126 1 4 -34 4 -34 -65 2 c-64 3 -66 4 -69 31 -4 36 -27 30 -27 -6 1 -19
-4 -27 -16 -27 -11 0 -15 7 -14 23 1 14 1 15 -2 3 -3 -10 -14 -21 -24 -23 -12
-3 -18 -11 -15 -19 3 -9 -2 -14 -13 -14 -14 0 -18 5 -14 18 4 16 -1 18 -31 14
-27 -3 -36 0 -36 11 0 8 7 17 15 21 8 3 15 10 15 15 0 6 -7 8 -15 5 -8 -4 -15
-1 -15 5 0 6 11 11 25 11 20 0 25 -5 25 -25z"/>
<path d="M2476 1906 c-10 -21 -15 -40 -13 -43 3 -2 19 -3 36 -1 l30 3 -18 40
-19 40 -16 -39z"/>
<path d="M2800 1960 c0 -64 1 -66 31 -50 14 8 19 21 19 50 0 29 -5 42 -19 50
-30 16 -31 14 -31 -50z"/>
<path d="M3060 1960 c0 -53 2 -60 20 -60 11 0 29 9 40 20 11 11 20 29 20 40 0
11 -9 29 -20 40 -11 11 -29 20 -40 20 -18 0 -20 -7 -20 -60z"/>
<path d="M3972 1898 c3 -107 5 -123 20 -126 10 -2 29 8 43 22 22 22 25 34 25
91 0 92 -26 134 -83 135 -4 0 -6 -55 -5 -122z"/>
<path d="M3380 1364 c0 -14 4 -23 10 -19 6 3 10 15 10 26 0 10 -4 19 -10 19
-5 0 -10 -12 -10 -26z"/>
<path d="M3422 1369 c1 -13 8 -23 13 -21 15 3 12 35 -3 40 -9 3 -13 -3 -10
-19z"/>
<path d="M4164 1376 c-4 -10 -2 -22 4 -28 8 -8 13 -7 18 6 4 10 2 22 -4 28 -8
8 -13 7 -18 -6z"/>
<path d="M4263 1373 c-13 -2 -23 -11 -23 -19 0 -17 16 -19 26 -3 4 8 9 7 15
-2 6 -10 9 -8 9 9 0 12 -1 21 -2 21 -2 -1 -13 -4 -25 -6z"/>
<path d="M4447 1383 c-11 -10 -8 -43 3 -43 6 0 10 11 10 25 0 26 -2 29 -13 18z"/>
<path d="M4560 1371 c0 -22 16 -36 24 -22 8 12 -3 41 -15 41 -5 0 -9 -9 -9
-19z"/>
<path d="M3540 1365 c0 -14 5 -25 10 -25 6 0 10 11 10 25 0 14 -4 25 -10 25
-5 0 -10 -11 -10 -25z"/>
<path d="M3907 1383 c-10 -9 -9 -43 2 -43 5 0 11 6 14 13 6 17 -7 40 -16 30z"/>
<path d="M4097 1383 c-11 -10 -8 -43 3 -43 6 0 10 11 10 25 0 26 -2 29 -13 18z"/>
<path d="M4043 1373 c-25 -5 -30 -18 -12 -29 6 -3 15 -1 19 6 6 10 9 9 13 -1
3 -8 6 -4 6 9 1 12 0 21 -1 21 -2 -1 -13 -4 -25 -6z"/>
<path d="M3440 2325 c0 -68 2 -75 20 -75 18 0 20 7 20 75 0 68 -2 75 -20 75
-18 0 -20 -7 -20 -75z"/>
<path d="M3660 2385 c0 -8 9 -15 20 -15 11 0 20 7 20 15 0 8 -9 15 -20 15 -11
0 -20 -7 -20 -15z"/>
<path d="M2544 2339 c-18 -22 -24 -53 -14 -69 15 -24 32 2 28 45 -2 31 -5 35
-14 24z"/>
<path d="M3223 2331 c-16 -25 -17 -57 -3 -66 14 -9 22 16 18 54 -3 30 -4 31
-15 12z"/>
<path d="M4064 2339 c-18 -22 -24 -53 -14 -69 15 -24 32 2 28 45 -2 31 -5 35
-14 24z"/>
<path d="M6905 2203 c-27 -26 -16 -161 18 -235 l26 -58 59 0 59 0 -5 48 c-4
44 -2 51 23 70 29 23 88 29 115 12 9 -5 19 -5 27 2 10 8 13 0 13 -38 l-1 -49
-16 27 c-35 56 -108 61 -108 7 0 -18 12 -30 50 -51 57 -31 96 -35 119 -12 13
12 16 40 16 143 0 85 -4 131 -12 139 -8 8 -65 12 -189 12 -152 0 -180 -2 -194
-17z"/>
<path d="M7352 2208 c-8 -8 -12 -52 -12 -134 0 -176 11 -194 55 -89 16 36 33
64 39 62 5 -2 22 -32 36 -68 l26 -64 66 -3 c95 -4 98 0 98 157 0 85 -4 131
-12 139 -8 8 -56 12 -148 12 -92 0 -140 -4 -148 -12z"/>
<path d="M7712 2208 c-8 -8 -12 -55 -12 -145 0 -121 2 -133 19 -143 11 -5 76
-10 145 -10 159 0 156 -3 156 162 0 93 -3 120 -16 132 -12 13 -41 16 -148 16
-89 0 -136 -4 -144 -12z"/>
<path d="M8072 2208 c-8 -8 -12 -54 -12 -143 0 -89 4 -135 12 -143 8 -8 55
-12 144 -12 168 0 164 -4 164 162 0 93 -3 120 -16 132 -12 13 -41 16 -148 16
-89 0 -136 -4 -144 -12z m152 -133 c-7 -16 -24 -21 -24 -6 0 8 7 13 27 20 1 1
0 -6 -3 -14z"/>
<path d="M8426 2204 c-13 -12 -16 -40 -16 -138 0 -161 -6 -156 167 -156 107 0
133 3 144 16 16 19 14 261 -3 281 -17 21 -271 18 -292 -3z"/>
<path d="M8780 2201 c-5 -11 -10 -74 -10 -140 0 -95 3 -123 16 -135 12 -13 41
-16 148 -16 89 0 136 4 144 12 8 8 12 54 12 143 0 89 -4 135 -12 143 -8 8 -56
12 -150 12 -126 0 -138 -2 -148 -19z"/>
<path d="M9140 2201 c-5 -11 -10 -74 -10 -140 0 -95 3 -123 16 -135 12 -13 41
-16 148 -16 89 0 136 4 144 12 8 8 12 54 12 143 0 89 -4 135 -12 143 -8 8 -56
12 -150 12 -126 0 -138 -2 -148 -19z m137 -153 c-2 -13 -4 -5 -4 17 -1 22 1
32 4 23 2 -10 2 -28 0 -40z"/>
<path d="M9502 2208 c-8 -8 -12 -55 -12 -145 0 -121 2 -133 19 -143 28 -15
274 -13 289 2 8 8 12 54 12 143 0 89 -4 135 -12 143 -8 8 -56 12 -148 12 -92
0 -140 -4 -148 -12z m133 -118 c3 -5 1 -10 -4 -10 -6 0 -11 5 -11 10 0 6 2 10
4 10 3 0 8 -4 11 -10z"/>
<path d="M9862 2208 c-8 -8 -12 -55 -12 -145 0 -121 2 -133 19 -143 11 -5 74
-10 141 -10 67 0 130 5 141 10 17 10 19 22 19 143 0 90 -4 137 -12 145 -8 8
-56 12 -148 12 -92 0 -140 -4 -148 -12z m133 -118 c3 -5 1 -10 -4 -10 -6 0
-11 5 -11 10 0 6 2 10 4 10 3 0 8 -4 11 -10z m37 -12 c-7 -7 -12 -8 -12 -2 0
14 12 26 19 19 2 -3 -1 -11 -7 -17z m-55 -40 c-3 -7 -5 -2 -5 12 0 14 2 19 5
13 2 -7 2 -19 0 -25z m70 10 c-3 -8 -6 -5 -6 6 -1 11 2 17 5 13 3 -3 4 -12 1
-19z m-32 2 c3 -5 1 -10 -4 -10 -6 0 -11 5 -11 10 0 6 2 10 4 10 3 0 8 -4 11
-10z"/>
<path d="M10222 2208 c-8 -8 -12 -55 -12 -145 0 -121 2 -133 19 -143 11 -5 74
-10 141 -10 67 0 130 5 141 10 17 10 19 22 19 143 0 90 -4 137 -12 145 -8 8
-56 12 -148 12 -92 0 -140 -4 -148 -12z"/>
<path d="M10582 2208 c-8 -8 -12 -55 -12 -145 0 -121 2 -133 19 -143 11 -5 76
-10 145 -10 100 0 128 3 140 16 13 12 16 40 16 143 0 85 -4 131 -12 139 -8 8
-56 12 -148 12 -92 0 -140 -4 -148 -12z m125 -150 c-3 -7 -5 -2 -5 12 0 14 2
19 5 13 2 -7 2 -19 0 -25z"/>
<path d="M10942 2208 c-8 -8 -12 -55 -12 -145 0 -121 2 -133 19 -143 11 -5 76
-10 145 -10 100 0 128 3 140 16 13 12 16 40 16 143 0 85 -4 131 -12 139 -8 8
-56 12 -148 12 -92 0 -140 -4 -148 -12z"/>
<path d="M11300 2210 c-12 -8 -14 -32 -12 -142 2 -73 8 -138 14 -145 8 -10 93
-13 368 -13 333 0 358 1 373 18 24 26 25 253 1 276 -13 14 -61 16 -372 16
-208 0 -363 -4 -372 -10z"/>
<path d="M5300 2096 l0 -56 65 0 65 0 0 -45 c0 -25 -4 -45 -10 -45 -5 0 -10 7
-10 15 0 8 -5 15 -11 15 -5 0 -7 5 -4 10 7 12 -36 30 -71 30 -15 0 -24 -6 -24
-15 0 -8 7 -15 15 -15 8 0 15 -4 15 -10 0 -5 -7 -10 -15 -10 -10 0 -15 -10
-15 -30 0 -16 4 -30 9 -30 18 0 41 32 41 56 0 13 6 24 13 24 9 0 11 -22 9 -85
-2 -47 -8 -85 -13 -85 -5 0 -9 9 -9 19 0 21 -25 51 -41 51 -6 0 -9 -25 -7 -57
l3 -58 44 1 c43 1 71 20 84 57 9 26 17 -3 11 -42 l-7 -41 -83 0 -84 0 0 -178
0 -178 57 1 c56 0 57 0 64 -32 l6 -33 -57 0 c-57 0 -57 0 -53 28 3 23 2 24 -6
7 -5 -11 -10 -116 -10 -232 l-1 -213 100 0 100 0 0 -270 0 -270 -95 0 -95 0 0
-190 0 -190 94 0 95 0 3 113 c2 61 5 299 6 526 2 287 6 419 14 428 8 10 11
105 12 301 1 246 -1 295 -16 345 -10 32 -18 77 -18 100 0 23 -7 64 -15 91 -8
27 -15 72 -15 100 -1 51 -17 95 -35 95 -5 0 -12 10 -15 23 -5 19 -13 24 -48
26 l-42 3 0 -55z m161 -712 c17 -21 0 -49 -32 -49 -24 0 -36 23 -25 51 7 19
40 18 57 -2z"/>
<path d="M5422 1369 c1 -13 8 -23 13 -21 15 3 12 35 -3 40 -9 3 -13 -3 -10
-19z"/>
<path d="M4570 1960 c0 -63 3 -66 44 -50 22 8 26 16 26 50 0 34 -4 42 -26 50
-41 16 -44 13 -44 -50z"/>
<path d="M7396 1935 c-9 -23 -8 -25 9 -25 17 0 19 9 6 28 -7 11 -10 10 -15 -3z"/>
<path d="M4712 1920 c-7 -12 -21 -24 -32 -28 -17 -6 -16 -11 18 -57 l37 -50 3
47 c2 25 -1 60 -5 77 -8 30 -9 30 -21 11z"/>
<path d="M2027 1903 c-24 -6 -11 -23 19 -23 15 0 24 6 24 15 0 15 -9 17 -43 8z"/>
<path d="M2096 1895 c-4 -11 1 -15 19 -15 16 0 25 6 25 15 0 8 -9 15 -19 15
-10 0 -21 -7 -25 -15z"/>
<path d="M15430 1875 c0 -8 2 -15 4 -15 2 0 6 7 10 15 3 8 1 15 -4 15 -6 0
-10 -7 -10 -15z"/>
<path d="M6970 1860 c0 -15 29 -71 48 -92 14 -17 11 -18 -56 -18 l-72 0 0
-104 c0 -139 -4 -136 160 -136 164 0 160 -3 160 133 l0 103 -39 -4 c-21 -2
-49 1 -61 8 -16 9 -25 9 -33 1 -21 -21 -27 -11 -27 44 0 60 12 71 28 26 10
-29 56 -61 86 -61 8 0 22 10 30 22 19 26 7 52 -34 73 -34 18 -190 21 -190 5z"/>
<path d="M7263 1858 c-4 -7 -9 -81 -11 -164 -5 -194 -14 -184 158 -184 164 0
160 -3 160 136 l0 104 -67 1 c-38 1 -60 3 -50 6 19 5 21 20 7 57 -8 23 -15 26
-54 26 -35 0 -48 -5 -56 -19 -16 -30 -12 -47 13 -59 19 -9 14 -11 -32 -11 -51
-1 -53 0 -39 17 19 21 48 77 48 92 0 14 -67 13 -77 -2z"/>
<path d="M7388 1863 c12 -2 30 -2 40 0 9 3 -1 5 -23 4 -22 0 -30 -2 -17 -4z"/>
<path d="M7526 1848 c3 -13 14 -36 23 -53 l16 -30 3 38 c3 40 -11 67 -35 67
-10 0 -12 -6 -7 -22z"/>
<path d="M7622 1858 c-8 -8 -12 -60 -12 -170 0 -145 1 -158 19 -168 11 -5 76
-10 145 -10 162 0 156 -7 156 187 0 115 -3 144 -16 157 -12 13 -41 16 -148 16
-89 0 -136 -4 -144 -12z"/>
<path d="M7983 1863 c-18 -7 -18 -324 -1 -341 8 -8 65 -12 189 -12 223 0 209
-12 209 187 0 115 -3 144 -16 157 -13 13 -44 16 -192 15 -97 0 -183 -3 -189
-6z"/>
<path d="M8426 1854 c-13 -13 -16 -42 -16 -164 0 -122 3 -151 16 -164 14 -14
106 -16 868 -16 649 0 855 3 864 12 8 8 12 60 12 168 0 108 -4 160 -12 168 -9
9 -215 12 -864 12 -762 0 -854 -2 -868 -16z"/>
<path d="M10222 1858 c-8 -8 -12 -60 -12 -168 0 -108 4 -160 12 -168 17 -17
369 -17 386 0 8 8 12 60 12 168 0 108 -4 160 -12 168 -8 8 -66 12 -193 12
-127 0 -185 -4 -193 -12z"/>
<path d="M10672 1858 c-17 -17 -17 -319 0 -336 17 -17 279 -17 296 0 8 8 12
60 12 168 0 108 -4 160 -12 168 -8 8 -56 12 -148 12 -92 0 -140 -4 -148 -12z"/>
<path d="M11392 1858 c-8 -8 -12 -60 -12 -170 0 -145 1 -158 19 -168 11 -5 76
-10 145 -10 100 0 128 3 140 16 13 13 16 42 16 160 0 81 -5 154 -10 165 -10
17 -22 19 -148 19 -94 0 -142 -4 -150 -12z m158 -68 c0 -5 -4 -10 -10 -10 -5
0 -10 5 -10 10 0 6 5 10 10 10 6 0 10 -4 10 -10z m0 -199 c0 -6 -4 -13 -10
-16 -5 -3 -10 1 -10 9 0 9 5 16 10 16 6 0 10 -4 10 -9z"/>
<path d="M2015 1850 c-3 -5 3 -10 14 -10 12 0 21 5 21 10 0 6 -6 10 -14 10 -8
0 -18 -4 -21 -10z"/>
<path d="M2093 1833 c15 -2 39 -2 55 0 15 2 2 4 -28 4 -30 0 -43 -2 -27 -4z"/>
<path d="M6890 1803 c0 -24 5 -43 10 -43 19 0 22 28 6 57 l-15 28 -1 -42z"/>
<path d="M15340 1835 c0 -5 5 -17 10 -25 5 -8 10 -10 10 -5 0 6 -5 17 -10 25
-5 8 -10 11 -10 5z"/>
<path d="M15345 1760 c-3 -6 1 -7 9 -4 18 7 21 14 7 14 -6 0 -13 -4 -16 -10z"/>
<path d="M15480 1740 c0 -5 5 -10 10 -10 6 0 10 5 10 10 0 6 -4 10 -10 10 -5
0 -10 -4 -10 -10z"/>
<path d="M15405 1720 c-3 -5 -1 -10 4 -10 6 0 11 5 11 10 0 6 -2 10 -4 10 -3
0 -8 -4 -11 -10z"/>
<path d="M11038 1689 c-15 -8 -18 -24 -18 -84 0 -63 3 -76 19 -85 11 -5 74
-10 141 -10 67 0 130 5 141 10 16 9 19 22 19 85 0 63 -3 76 -19 85 -25 13
-260 13 -283 -1z m157 -79 c3 -5 -1 -10 -10 -10 -9 0 -13 5 -10 10 3 6 8 10
10 10 2 0 7 -4 10 -10z"/>
<path d="M11752 1688 c-7 -7 -12 -41 -12 -83 0 -42 5 -76 12 -83 8 -8 55 -12
144 -12 160 0 164 2 164 95 0 93 -4 95 -164 95 -89 0 -136 -4 -144 -12z m153
-78 c3 -5 1 -10 -4 -10 -6 0 -11 5 -11 10 0 6 2 10 4 10 3 0 8 -4 11 -10z"/>
<path d="M15295 1669 c-4 -6 -5 -12 -2 -15 2 -3 7 2 10 11 7 17 1 20 -8 4z"/>
<path d="M15483 1615 c-3 -9 -3 -18 -1 -21 3 -3 8 4 11 16 6 23 -1 27 -10 5z"/>
<path d="M8847 1443 c496 -2 1310 -2 1810 0 499 1 94 2 -902 2 -995 0 -1404
-1 -908 -2z"/>
<path d="M5317 1383 c-11 -10 -8 -43 3 -43 6 0 10 11 10 25 0 26 -2 29 -13 18z"/>
<path d="M5357 1383 c-11 -10 -8 -43 3 -43 6 0 10 11 10 25 0 26 -2 29 -13 18z"/>
<path d="M4690 1360 c0 -11 5 -20 10 -20 6 0 10 9 10 20 0 11 -4 20 -10 20 -5
0 -10 -9 -10 -20z"/>
<path d="M4732 1360 c0 -14 2 -19 5 -12 2 6 2 18 0 25 -3 6 -5 1 -5 -13z"/>
<path d="M8497 1123 c-13 -16 -16 -89 -22 -571 -5 -404 -4 -552 4 -552 8 0 11
151 11 548 0 519 1 550 18 565 17 16 98 17 965 17 934 0 947 0 967 -20 15 -15
20 -16 20 -5 0 8 -9 19 -19 25 -13 7 -335 10 -974 10 -896 0 -955 -1 -970 -17z"/>
<path d="M3260 650 l0 -260 753 0 753 0 -4 107 c-4 91 -7 110 -23 121 -26 18
-24 38 5 57 21 14 23 19 15 61 -5 26 -7 50 -4 54 3 5 2 34 -1 64 l-7 56 -743
0 -744 0 0 -260z m457 40 c4 -15 11 -18 33 -13 22 4 31 0 39 -16 11 -19 9 -21
-14 -21 -14 0 -25 -5 -25 -11 0 -6 9 -8 20 -4 11 4 20 2 20 -4 0 -6 -12 -11
-26 -11 -18 0 -28 6 -32 22 l-5 22 -8 -22 c-6 -17 -17 -22 -44 -22 l-35 0 0
50 0 50 36 0 c27 0 37 -5 41 -20z m303 6 c0 -7 9 -16 21 -19 16 -4 20 -12 17
-34 -2 -22 -9 -29 -30 -31 -27 -3 -28 -2 -28 47 0 28 5 51 10 51 6 0 10 -6 10
-14z m482 -6 c2 -6 28 -11 58 -13 48 -2 55 -5 58 -23 2 -12 13 -24 25 -28 29
-7 33 0 8 14 -29 15 -27 40 4 40 14 0 25 -5 25 -11 0 -6 -7 -9 -15 -5 -8 3
-15 2 -15 -3 0 -5 9 -11 21 -14 12 -3 19 -12 17 -19 -3 -9 -24 -13 -64 -13
-57 0 -59 1 -62 28 -4 36 -22 35 -22 -2 l0 -29 -92 1 -93 2 0 30 c0 23 5 31
22 33 14 2 26 -4 33 -17 9 -19 8 -21 -15 -21 -14 0 -25 -3 -25 -7 0 -5 20 -8
45 -8 47 0 59 9 25 18 -33 8 -25 37 10 37 17 0 30 5 30 10 0 13 17 13 22 0z
m-652 -20 c0 -5 -7 -7 -15 -4 -8 4 -15 2 -15 -4 0 -19 37 -20 48 -1 8 13 23
18 47 17 32 -1 35 -4 35 -30 0 -17 4 -27 10 -23 6 3 10 17 10 31 0 13 5 24 10
24 6 0 10 -16 10 -35 l0 -35 -52 1 c-29 1 -58 6 -65 11 -7 6 -14 5 -18 -2 -8
-13 -42 -13 -51 1 -4 8 0 9 15 4 12 -4 21 -2 21 4 0 6 -6 11 -14 11 -18 0 -29
16 -21 30 8 13 45 13 45 0z m318 -12 c3 -14 -3 -18 -23 -18 -16 0 -24 -4 -20
-10 4 -6 16 -8 27 -4 14 4 18 2 14 -5 -18 -29 -71 3 -59 37 3 6 0 12 -6 12 -6
0 -11 -13 -11 -30 0 -16 -4 -30 -10 -30 -5 0 -10 16 -10 35 l0 34 47 -2 c36
-1 49 -6 51 -19z m102 -13 c0 -19 -4 -35 -10 -35 -5 0 -10 14 -10 31 0 17 -4
28 -10 24 -5 -3 -10 -17 -10 -31 0 -13 -4 -24 -10 -24 -5 0 -10 16 -10 35 0
32 2 35 30 35 28 0 30 -3 30 -35z m30 5 c0 -16 5 -30 10 -30 6 0 10 14 10 30
0 17 5 30 10 30 6 0 10 -16 10 -36 0 -33 -2 -35 -27 -32 -23 2 -29 8 -31 36
-2 18 1 32 7 32 6 0 11 -13 11 -30z"/>
<path d="M3660 660 c0 -44 21 -55 40 -20 13 24 -3 60 -25 60 -11 0 -15 -12
-15 -40z"/>
<path d="M3750 660 c0 -5 7 -10 16 -10 8 0 12 5 9 10 -3 6 -10 10 -16 10 -5 0
-9 -4 -9 -10z"/>
<path d="M4020 645 c0 -14 5 -25 10 -25 6 0 10 11 10 25 0 14 -4 25 -10 25 -5
0 -10 -11 -10 -25z"/>
<path d="M4370 660 c0 -5 7 -10 16 -10 8 0 12 5 9 10 -3 6 -10 10 -16 10 -5 0
-9 -4 -9 -10z"/>
<path d="M4440 659 c0 -4 9 -9 20 -12 12 -3 20 0 20 7 0 6 -9 12 -20 12 -11 0
-20 -3 -20 -7z"/>
<path d="M4502 645 c0 -16 2 -22 5 -12 2 9 2 23 0 30 -3 6 -5 -1 -5 -18z"/>
<path d="M4580 645 c0 -14 5 -25 10 -25 6 0 10 11 10 25 0 14 -4 25 -10 25 -5
0 -10 -11 -10 -25z"/>
<path d="M3883 654 c-8 -20 10 -36 30 -28 24 9 21 31 -4 37 -13 3 -22 0 -26
-9z"/>
<path d="M4125 660 c-3 -5 1 -10 9 -10 9 0 16 5 16 10 0 6 -4 10 -9 10 -6 0
-13 -4 -16 -10z"/>
<path d="M5270 650 l0 -260 95 0 95 0 0 260 0 260 -95 0 -95 0 0 -260z"/>
<path d="M10457 346 c-4 -186 -5 -341 -2 -344 3 -3 7 -3 10 0 3 3 4 158 3 344
l-3 339 -8 -339z"/>
<path d="M4752 645 c0 -16 2 -22 5 -12 2 9 2 23 0 30 -3 6 -5 -1 -5 -18z"/>
<path d="M15661 424 c0 -11 3 -14 6 -6 3 7 2 16 -1 19 -3 4 -6 -2 -5 -13z"/>
<path d="M6068 150 c-4 -79 -5 -146 -3 -149 13 -12 15 18 13 150 l-3 144 -7
-145z"/>
</g>
</svg>
